                <svg width="168" height="163" viewBox="0 0 168 163" fill="none" xmlns="http://www.w3.org/2000/svg">
                <g clipPath="url(#clip0_107_21)">
                <path d="M99.4094 70.9247C98.5802 68.7682 98.4716 66.4021 99.0996 64.179C99.2745 63.5593 99.299 62.9071 99.1711 62.2761C98.6535 60.3854 98.6783 58.3877 99.2426 56.5104C99.3454 56.1782 99.3779 55.8282 99.3379 55.4828C99.1759 54.2269 98.7278 52.952 98.8613 51.7294C98.9607 49.9318 98.9384 48.1294 98.7945 46.3348C98.704 44.1179 99.0138 41.9201 98.4514 39.6747C98.0789 38.2973 98.2318 36.8311 98.8804 35.5597C99.0233 35.2981 98.8804 34.8842 98.8804 34.5465C98.766 33.3952 98.5515 32.2487 98.5276 31.1022C98.4704 28.0957 99.6573 26.502 102.555 25.8693C106.845 24.9179 111.135 24.6372 115.463 25.4983C116.292 25.6997 117.101 25.9768 117.879 26.326C118.429 26.5131 118.908 26.8627 119.254 27.3284C119.6 27.7941 119.795 28.3537 119.814 28.933C120.01 30.9262 120.353 32.9005 119.781 34.889C119.742 35.1216 119.781 35.3604 119.891 35.5692C120.656 37.3106 120.76 39.2709 120.181 41.0828C120.118 41.4835 120.136 41.8927 120.234 42.2864C120.577 44.4604 120.915 46.625 119.671 48.6658C119.552 48.8656 119.628 49.1986 119.638 49.4698C119.676 51.1681 119.771 52.8664 119.743 54.5647C119.743 55.0404 119.376 55.5494 119.171 56.068C120.053 58.4989 120.749 60.9821 119.052 63.5796C119.652 65.511 120.105 67.5518 119.052 69.645C118.828 70.0969 119.052 70.8343 119.209 71.4099C119.619 73.0511 119.686 74.6353 118.852 76.1671C118.747 76.4968 118.747 76.8507 118.852 77.1804C118.999 77.9558 119.161 78.7264 119.381 79.4876C119.786 80.9147 119.857 82.2563 118.809 83.5835C121.711 85.9193 120.391 89.0876 120.558 92.0228H127.884C128.249 92.002 128.616 92.01 128.98 92.0466C129.571 92.1369 130.029 92.4271 130.014 93.1074C130.033 93.2461 130.023 93.3872 129.984 93.5218C129.945 93.6563 129.879 93.7814 129.789 93.8891C129.7 93.9968 129.589 94.0848 129.464 94.1476C129.338 94.2104 129.201 94.2466 129.061 94.2539C128.151 94.3585 127.24 94.525 126.33 94.5631C122.971 94.7122 119.613 94.8327 116.254 94.9247C109.114 95.1308 101.972 95.3195 94.8289 95.4908C91.8976 95.5574 88.9662 95.4907 86.0301 95.5669C85.2534 95.6272 84.4813 95.7368 83.7185 95.8951C83.4849 95.9332 83.218 96.0711 83.0273 95.995C80.3057 94.9627 77.4697 95.5764 74.7052 95.5193C68.9855 95.3718 63.242 95.5526 57.5128 95.6097C52.0172 95.6668 46.5215 95.7476 41.0259 95.8C40.5385 95.8327 40.0499 95.7563 39.5959 95.5764C39.4112 95.4995 39.2539 95.369 39.1442 95.2019C39.0345 95.0349 38.9775 94.8388 38.9806 94.6391C38.9837 94.4393 39.0467 94.2451 39.1615 94.0815C39.2762 93.9178 39.4375 93.7923 39.6245 93.7211C40.2464 93.4815 40.9074 93.3589 41.574 93.3595C45.8637 93.2596 50.1535 93.2026 54.4099 93.1359C55.0724 93.1359 55.7397 93.1359 56.6215 93.1359V88.4739C56.6215 80.8624 56.6215 73.2509 56.6215 65.6394C56.6215 59.4218 56.5023 53.2089 56.5643 46.9913C56.6072 42.3054 56.8455 37.6244 57.0028 32.9385C57.0934 30.2174 57.1601 27.4963 57.2983 24.7752C57.5033 20.6983 57.8131 16.6262 57.9799 12.5445C58.0943 9.80435 58.0133 7.05945 58.0991 4.31455C58.1687 3.35039 58.3282 2.39481 58.5757 1.46024C58.7902 0.508803 59.4384 0.0663784 60.4394 0.0711356C64.1 0.0711356 67.7558 0.0378353 71.4021 0.0711356C75.533 0.0901643 79.6734 0.134564 83.8233 0.204336C86.7499 0.251908 89.6764 0.342295 92.603 0.442195C94.1521 0.494524 94.8956 1.09869 94.9862 2.62574C95.1721 6.03189 95.3818 9.44278 95.3151 12.8442C95.2388 17.0352 94.8718 21.2168 94.6621 25.4031C94.4524 29.6846 94.2855 33.9185 94.1044 38.1809C93.8995 42.862 93.6611 47.5479 93.5134 52.2337C93.3418 57.5284 93.2322 62.8279 93.1511 68.1227C93.0876 72.0553 93.0796 75.9911 93.1273 79.93C93.1702 83.9926 93.3084 88.0553 93.4133 92.1131C93.4508 92.3849 93.5081 92.6537 93.5849 92.9171H99.0186C98.3227 90.9381 97.7459 89.0543 98.2464 87.1562C98.7556 85.2954 98.8355 83.3436 98.48 81.4475C98.4239 80.9026 98.4725 80.3521 98.623 79.8254C98.7852 78.8792 98.769 77.9112 98.5753 76.971C98.2672 74.9174 98.5567 72.8187 99.4094 70.9247ZM90.7632 92.9599C90.6154 87.5177 90.3819 82.2896 90.358 77.0567C90.3342 71.8238 90.4724 66.5909 90.6345 61.358C90.8919 53.09 91.2112 44.822 91.5258 36.554C91.7021 32.0109 91.9119 27.4678 92.1311 22.9246C92.2789 19.8277 92.4552 16.7403 92.6364 13.6386C92.9151 9.86635 92.8032 6.07543 92.3027 2.32604C81.7738 3.11097 71.2543 1.9312 60.63 2.54488V4.29552C60.63 6.42674 60.7444 8.57698 60.63 10.6844C60.4251 15.0087 60.0438 19.3235 59.8579 23.6477C59.591 29.7845 59.3336 35.9308 59.2478 42.0771C59.1334 50.2356 59.1906 58.399 59.1715 66.5623C59.1715 73.8694 59.1143 81.1811 59.1286 88.4882C59.1286 89.9867 59.3336 91.4852 59.4432 92.9695H67.5461C67.6509 90.5909 67.7653 88.3217 67.8368 86.0763C67.956 82.3752 67.7034 78.6646 68.3468 74.9825C68.6042 73.5126 68.8235 73.2557 70.3392 73.4317C71.8549 73.6077 73.485 73.8123 75.0674 73.9074C77.565 74.0454 80.0674 74.0834 82.565 74.1976C83.8614 74.2547 84.2713 74.64 84.4429 75.8769C84.4954 76.3618 84.5145 76.8498 84.5001 77.3373C84.4715 81.7234 84.4286 86.1096 84.4048 90.4957C84.4048 91.2711 84.4763 92.0466 84.524 92.9647L90.7632 92.9599ZM75.2819 77.0519L70.3296 76.1005V92.9695H74.6194C74.8339 87.5748 75.0579 82.3419 75.2819 77.0281V77.0519ZM77.3172 92.9456H81.7309V76.7712H77.8463C77.6937 82.1326 77.4935 87.4321 77.3172 92.9219V92.9456ZM118.036 27.9482C117.374 27.6524 116.689 27.4122 115.987 27.2299C114.615 26.9624 113.226 26.7844 111.831 26.6971C108.728 26.5496 105.634 26.6067 102.622 27.5724C101.996 27.8313 101.392 28.14 100.816 28.4953L100.877 28.971C101.897 29.2612 102.908 29.6133 103.947 29.8368C107.826 30.6973 111.858 30.5845 115.682 29.5086C116.516 29.2612 117.469 29.0614 118.036 27.9244V27.9482ZM103.075 36.906L100.062 35.8975C99.9694 37.14 99.9407 38.3864 99.9766 39.6319C100.148 41.7012 100.777 42.1865 103.075 42.2769V36.906ZM114.805 86.1191L112.05 86.8327V92.6079L114.519 92.4462C114.619 90.2436 114.705 88.3217 114.805 86.0953V86.1191ZM106.478 92.7126C106.345 90.7003 106.216 88.8592 106.092 87.0039L103.752 86.7185V92.7173L106.478 92.7126ZM101.969 86.4188C100.229 85.5292 99.9385 85.6672 99.8384 87.4606C99.7309 88.3008 99.7309 89.1513 99.8384 89.9915C100.041 90.7959 100.376 91.5612 100.83 92.2559C100.891 92.3994 100.986 92.5262 101.107 92.6259C101.227 92.7256 101.37 92.7953 101.522 92.8292C101.675 92.8632 101.834 92.8603 101.985 92.821C102.137 92.7817 102.276 92.707 102.393 92.6031C102.26 90.491 102.117 88.5262 101.969 86.395V86.4188ZM115.634 62.3237C117.064 62.4378 118.017 62.0477 118.494 60.8965C118.928 59.8499 118.303 57.9994 117.283 57.1241L115.124 58.0422C115.31 59.4456 115.467 60.8204 115.634 62.2999V62.3237ZM116.363 85.6624V92.3225C116.559 92.3225 116.797 92.3795 117.031 92.3843C118.647 92.3843 119.033 91.9847 118.894 90.334C118.828 89.5538 118.613 88.7879 118.561 88.0077C118.48 86.7328 117.832 86.0287 116.363 85.6386V85.6624ZM104.386 37.1486V42.6955L106.769 43.0571V37.5007L104.386 37.1486ZM103.075 50.8351L100.606 49.7837C100.439 51.4725 100.291 52.9472 100.129 54.4981L103.07 55.7397L103.075 50.8351ZM114.142 51.2442L111.731 51.4868V56.6198L114.142 56.2535V51.2442ZM113.699 63.0087V58.2515L110.882 58.7558C111.054 60.397 111.206 61.8765 111.359 63.5129L113.699 63.0087ZM108.032 92.6174H110.043V87.1514H108.032V92.6174ZM113.69 83.6263C113.761 82.0945 113.823 80.7244 113.89 79.2402L111.097 79.7921C111.168 81.3334 111.23 82.7367 111.297 84.3066L113.69 83.6263ZM115.048 48.9417V44.3463L112.326 44.8648C112.45 46.3823 112.569 47.8095 112.703 49.4174L115.048 48.9417ZM116.073 55.4971C117.131 55.0547 118.089 54.6123 118.26 53.618C118.549 52.3279 118.431 50.9804 117.922 49.7599L115.639 50.9016C115.777 52.3716 115.911 53.7988 116.073 55.4733V55.4971ZM106.445 51.4107L104.252 51.1015V56.0347L106.445 56.3296V51.4107ZM100.572 56.7577C100.453 58.0993 100.325 59.1696 100.277 60.24C100.191 62.0763 100.277 62.1429 102.307 62.5282V57.5617L100.572 56.7577ZM107.984 37.5149C108.127 39.4178 108.251 41.1494 108.385 42.9714L110.119 42.8049V37.5149H107.984ZM103.842 57.9375V63.4511L105.773 63.8127V58.4037L103.842 57.9375ZM116.878 48.0236C117.534 47.7477 118.17 47.4299 118.785 47.0721C118.922 46.9688 119.036 46.8372 119.119 46.6862C119.201 46.5352 119.25 46.3683 119.261 46.1968C119.261 45.017 119.157 43.8182 119.076 42.3911L116.902 43.7088L116.878 48.0236ZM117.26 78.1889C115.777 78.2269 115.32 78.4267 115.281 79.1974C115.229 80.4343 115.281 81.6759 115.281 83.0032C118.113 81.9851 118.365 81.3048 117.255 78.1889H117.26ZM100.348 79.2164C100.282 80.4866 99.4523 81.6283 100.139 82.8842L102.66 83.5597V79.754L100.348 79.2164ZM102.474 76.8093V72.3518C100.596 71.5193 100.439 71.6002 100.272 73.4127C100.239 73.7742 100.201 74.1358 100.196 74.4973C100.162 76.3716 100.339 76.5524 102.479 76.8093H102.474ZM105.625 66.1056L105.844 70.8628L108.027 70.977C107.817 69.2073 107.641 67.7183 107.45 66.1246L105.625 66.1056ZM104.381 79.9015C104.219 81.4047 104.08 82.6416 103.904 84.0925L106.726 84.2828C106.592 82.7891 106.478 81.5046 106.354 80.1536L104.381 79.9015ZM106.392 77.3802C106.116 75.758 105.887 74.4117 105.658 73.0511L103.632 72.6372L103.947 77.2565L106.392 77.3802ZM114.948 69.683C114.872 67.9324 114.805 66.4529 114.733 64.7974L112.665 65.4444C112.865 67.1094 113.041 68.5984 113.241 70.2491L114.948 69.683ZM111.588 37.4483V42.7621L113.494 42.1912V37.1058L111.588 37.4483ZM108.06 56.5579L110.1 56.7482C109.943 54.9453 109.805 53.2945 109.652 51.5153L108.06 51.6961V56.5579ZM109.629 70.8295L111.507 70.5774C111.373 68.8981 111.259 67.4091 111.13 65.7869L109.023 65.9962C109.223 67.6993 109.409 69.1883 109.629 70.8723V70.8295ZM111.378 76.8854C111.883 76.8486 112.386 76.7834 112.884 76.6904C114.037 76.4049 114.161 76.1766 113.999 74.9254C113.914 74.288 113.856 73.6458 113.771 72.8846L111.387 73.2557L111.378 76.8854ZM110.925 49.4079V45.1264H108.709C108.775 46.6012 108.842 47.9808 108.909 49.4079H110.925ZM105.239 44.9599C105.315 46.4822 105.377 47.7429 105.444 49.0987L107.465 49.4031V45.1407L105.239 44.9599ZM116.821 41.2065V36.5112L115.091 36.8965V41.9153L116.821 41.2065ZM118.613 29.7322L116.497 30.5314V34.4941L118.613 33.8757V29.7322ZM109.962 77.2232C109.848 75.8341 109.752 74.64 109.648 73.3651H107.508C107.574 74.6828 107.631 75.9244 107.698 77.2232H109.962ZM109.533 63.7889C109.376 61.9764 109.242 60.3685 109.099 58.7415H107.722V63.8697L109.533 63.7889ZM108.032 84.4779L109.633 84.4113V79.8444L108.032 80.2059V84.4779ZM113.151 35.2458L114.895 34.77V30.8834L112.927 31.2688C112.998 32.615 113.07 33.8186 113.151 35.2458ZM102.913 65.216C102.774 67.0618 102.665 68.5461 102.546 70.1064L104.204 70.5441C104.204 69.0456 104.271 67.6898 104.157 66.3007C104.128 65.9677 103.494 65.6917 102.913 65.216ZM104.019 48.8894C103.952 47.3861 103.895 46.0874 103.833 44.7173L102.264 44.3225V48.347L104.019 48.8894ZM101.95 34.6178V30.9072C101.597 30.7693 101.268 30.6218 100.925 30.5124C100.768 30.4829 100.608 30.4734 100.448 30.4838C99.6191 33.2573 99.9194 34.1944 101.95 34.6178ZM103.58 35.0935H105.286L105.62 31.5066L103.58 31.1736V35.0935ZM108.671 35.3124C108.547 34.0137 108.437 32.7958 108.318 31.5066L106.945 31.5685L106.793 33.4713C106.75 34.0565 106.707 34.6368 106.654 35.3362L108.671 35.3124ZM109.767 31.5066C109.814 32.558 109.8 33.5237 109.915 34.4751C110.029 35.4265 110.615 35.6596 111.611 35.0983C111.554 34.5655 111.459 33.9803 111.445 33.3952C111.43 32.8101 111.487 32.2107 111.516 31.5637C111.26 31.4903 110.999 31.4378 110.734 31.4067C110.41 31.4235 110.087 31.4584 109.767 31.5114V31.5066ZM101.626 69.4642C101.712 65.2208 101.712 65.2208 100.601 64.7831C99.8813 68.3748 99.9146 68.5461 101.626 69.469V69.4642ZM116.111 64.6452C116.292 65.9819 116.449 67.1569 116.645 68.6222C117.121 68.1464 117.779 67.861 117.817 67.49C117.929 66.6028 117.864 65.7024 117.627 64.8402C117.383 64.022 116.735 63.9792 116.111 64.6499V64.6452ZM115.515 75.3536C116.945 74.5877 117.045 74.2927 116.506 71.9332C115.382 72.2947 115.382 72.2947 115.515 75.3584V75.3536ZM118.046 40.5405C119.147 39.3512 119.266 38.9516 118.999 37.5102C118.904 36.9631 118.956 36.24 118.046 36.2781V40.5405ZM100.63 43.7516C99.7145 46.3918 99.7288 46.5298 100.925 47.4337C100.839 46.135 101.368 44.9029 100.63 43.7564V43.7516Z" fill="#6DECB9"/>
                <path d="M69.238 63.0803C67.8986 62.9376 66.6117 62.8805 65.3581 62.6473C63.9282 62.3857 63.3801 61.6579 63.5136 60.1784C63.6661 58.4896 64.014 56.8484 64.2047 55.1405C64.2232 54.738 64.3975 54.3583 64.6909 54.0814C64.9843 53.8046 65.3739 53.6522 65.7776 53.6563C66.8105 53.5604 67.8487 53.5334 68.8853 53.5754C70.1531 53.6278 71.3829 53.818 72.6364 53.29C73.5373 52.9094 74.1712 53.4279 74.2236 54.4317C74.233 55.1007 74.1996 55.7697 74.1236 56.4345C74.0044 57.9473 73.9567 59.4696 73.7375 60.9681C73.4706 62.7853 72.9939 63.1136 71.2018 63.085C70.544 63.0708 69.8481 63.0803 69.238 63.0803ZM71.6212 60.597C71.7547 58.97 71.8786 57.4953 72.012 55.8731L66.5783 56.1633C66.1589 57.5905 65.8205 58.8511 66.2685 60.2497L71.6212 60.597Z" fill="#6DECB9"/>
                <path d="M69.0425 13.2201C69.8338 13.2201 70.625 13.1868 71.4257 13.2201C72.8557 13.2962 73.6802 14.0954 73.7708 15.4845C73.8709 16.9973 73.9519 18.5196 73.9519 20.0371C73.9519 21.9971 73.094 22.8914 71.1922 22.8534C69.428 22.8303 67.6665 22.7096 65.9158 22.4918C64.3715 22.292 64.0521 21.8734 64.1046 20.3321C64.1384 18.6007 64.2705 16.8727 64.5002 15.1562C64.7147 13.6577 65.1961 13.3342 66.6736 13.2248C67.0979 13.1915 67.5268 13.2248 67.9558 13.2248H69.0521L69.0425 13.2201ZM66.3972 20.1751H71.5735C71.502 18.6908 71.4353 17.3208 71.3685 15.8936H66.769C66.6498 17.297 66.5354 18.5957 66.3972 20.1751Z" fill="#6DECB9"/>
                <path d="M82.6267 62.7523C81.5924 62.6667 80.5438 62.6666 79.5333 62.4811C78.2607 62.248 77.5172 61.5297 77.5076 60.2548C77.5115 58.4328 77.6373 56.613 77.8842 54.8078C78.0319 53.7136 78.6563 53.2094 79.7907 53.2236C81.7354 53.2474 83.6897 53.3711 85.6248 53.5804C85.8727 53.6589 86.1012 53.7889 86.2951 53.9619C86.489 54.1349 86.6439 54.347 86.7497 54.5842C87.7649 56.8153 87.4503 59.1035 86.7497 61.3441C86.6301 61.7947 86.3451 62.1838 85.9512 62.4341C85.5573 62.6844 85.0835 62.7777 84.6239 62.6952C83.9566 62.6381 83.2797 62.6952 82.6077 62.6952L82.6267 62.7523ZM85.0099 55.783H80.153V60.1311L84.4809 60.4831C84.6668 58.8419 84.8431 57.3719 85.0052 55.783H85.0099Z" fill="#6DECB9"/>
                <path d="M69.0425 49.6363C67.8891 49.5269 66.7165 49.5078 65.5869 49.289C64.0903 48.9941 63.504 48.2329 63.5469 46.7059C63.5898 45.1788 63.7137 43.666 63.8805 42.158C64.014 40.9592 64.4525 40.4549 65.6107 40.3883C67.5578 40.267 69.5097 40.2432 71.4591 40.3169C72.8128 40.374 73.8042 41.5967 73.8185 43.1094C73.8328 44.6222 73.7517 46.135 73.623 47.643C73.4944 49.151 72.7031 49.8028 71.2398 49.7695C70.5106 49.7695 69.7813 49.6363 69.0521 49.5649L69.0425 49.6363ZM71.4591 42.5005L66.4449 42.7193C66.3019 44.2036 66.1684 45.5737 66.0207 47.0579L71.1684 47.5907C71.7117 45.9637 71.5401 44.3511 71.4591 42.5053V42.5005Z" fill="#6DECB9"/>
                <path d="M82.9367 22.8772C81.7451 22.6774 80.5535 22.5394 79.3572 22.254C78.4706 22.0399 77.789 21.4405 77.8462 20.4462C77.9511 18.4577 78.1084 16.4645 78.3467 14.4807C78.3912 14.0762 78.5928 13.7052 78.9083 13.4473C79.2237 13.1894 79.6278 13.0651 80.034 13.1011C82.0931 13.1011 84.1569 13.1011 86.2303 13.2439C86.3998 13.2587 86.5644 13.3082 86.7138 13.3893C86.8633 13.4704 86.9944 13.5814 87.099 13.7153C87.2037 13.8492 87.2796 14.0031 87.322 14.1675C87.3644 14.332 87.3725 14.5033 87.3456 14.671C87.2304 16.7219 87.0092 18.7654 86.6831 20.7935C86.3828 22.4014 85.9872 22.5441 84.2523 22.625C83.828 22.625 83.4038 22.6964 82.9796 22.7345L82.9367 22.8772ZM85.0387 15.5035H80.8157C80.6584 17.0829 80.5106 18.6052 80.339 20.2226C81.5354 20.3416 82.4982 20.4367 83.461 20.5414C84.4238 20.6461 84.7861 20.1323 84.8338 19.2712C84.9291 18.0724 84.9863 16.8688 85.0578 15.5083L85.0387 15.5035Z" fill="#6DECB9"/>
                <path d="M64.1952 31.4784C64.3048 30.4556 64.3716 29.4281 64.5384 28.4196C64.5475 28.236 64.5931 28.056 64.6726 27.8902C64.7521 27.7244 64.8639 27.5761 65.0014 27.4539C65.139 27.3317 65.2995 27.238 65.4737 27.1784C65.6479 27.1188 65.8322 27.0943 66.016 27.1066C67.8367 27.1066 69.6575 26.9448 71.4687 27.0637C72.77 27.1494 73.4134 28.3339 73.6803 29.4043C74.1121 31.1826 74.0578 33.044 73.5231 34.7942C73.1703 35.9835 72.4125 36.5305 71.2304 36.4402C69.5955 36.3117 67.9607 36.1547 66.3401 35.8978C64.7195 35.6409 64.1952 35.013 64.1905 33.3052C64.1905 32.701 64.2667 32.0921 64.3096 31.4879L64.1952 31.4784ZM71.4354 34.2661C71.4687 32.6106 71.5212 31.231 71.5069 29.8514C71.5069 29.2473 71.0541 29.0094 70.4964 29.057C69.3668 29.1617 68.2371 29.2996 66.974 29.4423V33.7238L71.4354 34.2661Z" fill="#6DECB9"/>
                <path d="M82.9604 36.1498C82.1597 36.088 81.1254 35.9976 80.1006 35.931C79.9146 35.9394 79.7288 35.9099 79.5547 35.8441C79.3805 35.7784 79.2217 35.6779 79.0878 35.5487C78.9539 35.4196 78.8479 35.2645 78.7762 35.093C78.7044 34.9215 78.6685 34.7372 78.6707 34.5514C78.5658 32.6152 78.4228 30.6695 78.5086 28.7381C78.5801 27.1587 79.2951 26.6069 80.8918 26.6878C82.5887 26.7686 84.2855 26.9494 85.968 27.1635C86.7974 27.2824 87.2502 27.8105 87.5028 28.7286C88.0414 30.7076 87.622 32.5962 87.1978 34.48C87.1092 34.9375 86.8554 35.3467 86.4847 35.6299C86.1139 35.9131 85.652 36.0507 85.1864 36.0166C84.5334 36.0309 83.8899 36.1022 82.9604 36.1498ZM81.1444 29.014V33.7712L84.6144 34.0519C85.4628 32.2917 85.2483 30.6648 85.091 29.0235L81.1444 29.014Z" fill="#6DECB9"/>
                <path d="M82.5886 40.2077C83.0653 40.2077 83.5658 40.2077 84.0519 40.2077C85.9919 40.2505 87.2359 41.3875 87.2073 43.3236C87.2073 44.7508 86.8975 46.2065 86.7306 47.6527C86.602 48.8039 85.9108 49.4747 84.8241 49.4509C82.9463 49.4395 81.0717 49.2965 79.214 49.0228C77.7841 48.7897 77.4409 48.0713 77.6316 46.6442C77.808 45.3217 78.0367 44.0087 78.1702 42.6862C78.3561 40.7833 78.909 40.2172 80.7822 40.1364C81.3875 40.1364 81.9976 40.1364 82.6029 40.1364L82.5886 40.2077ZM84.643 47.3435C84.7288 45.6166 84.8003 44.1466 84.8765 42.5244H80.6916C80.5534 43.9516 80.4199 45.3787 80.2817 46.7726L84.643 47.3435Z" fill="#6DECB9"/>
                <path d="M108.98 28.4291L107.865 27.9058C108.65 27.5205 109.521 27.3451 110.394 27.3968C111.267 27.4485 112.112 27.7255 112.846 28.2008C111.745 29.999 108.318 30.2416 105.615 28.6765C106.13 28.1104 106.697 28.2911 107.279 28.4101C107.86 28.529 108.356 28.5623 108.894 28.6336L108.98 28.4291Z" fill="#6DECB9"/>
                </g>
                <path d="M32.5226 123.593H30.8126L28.0226 115.511H27.9146L27.8426 126.851H26.3306L26.7086 114.341H28.9406L31.6046 122.423H31.6946L34.3406 114.341H36.5726L36.9866 126.851H35.4747L35.3667 115.511H35.2767L32.5226 123.593ZM40.0637 121.631C40.0637 119.831 40.3577 118.469 40.9457 117.545C41.5457 116.609 42.5537 116.141 43.9697 116.141C45.3977 116.141 46.4117 116.609 47.0117 117.545C47.6117 118.469 47.9117 119.825 47.9117 121.613C47.9117 123.401 47.6117 124.763 47.0117 125.699C46.4117 126.623 45.3977 127.085 43.9697 127.085C42.5537 127.085 41.5457 126.623 40.9457 125.699C40.3577 124.775 40.0637 123.419 40.0637 121.631ZM45.4277 117.743C45.1157 117.539 44.6357 117.437 43.9877 117.437C43.3397 117.437 42.8537 117.539 42.5297 117.743C42.2177 117.947 41.9777 118.349 41.8097 118.949C41.6537 119.537 41.5757 120.425 41.5757 121.613C41.5757 122.801 41.6537 123.695 41.8097 124.295C41.9657 124.895 42.2057 125.297 42.5297 125.501C42.8537 125.705 43.3397 125.807 43.9877 125.807C44.6357 125.807 45.1157 125.705 45.4277 125.501C45.7517 125.297 45.9917 124.895 46.1477 124.295C46.3037 123.695 46.3817 122.801 46.3817 121.613C46.3817 120.425 46.3037 119.537 46.1477 118.949C45.9917 118.349 45.7517 117.947 45.4277 117.743ZM52.4868 126.851H50.9928V116.375H52.0008L52.1628 117.401H52.2528C53.6928 116.561 54.9408 116.141 55.9968 116.141C56.9448 116.141 57.5988 116.507 57.9588 117.239C58.2588 117.851 58.4088 118.733 58.4088 119.885V126.851H56.8968V120.407C56.8968 119.039 56.8068 118.223 56.6268 117.959C56.4588 117.695 56.1348 117.563 55.6548 117.563C54.7428 117.563 53.6868 117.881 52.4868 118.517V126.851ZM63.4773 116.987H65.5653V118.193H63.4773V123.629C63.4773 124.637 63.5253 125.243 63.6213 125.447C63.7293 125.651 64.0473 125.753 64.5753 125.753L65.5473 125.717V126.923C65.2953 126.983 64.9593 127.013 64.5393 127.013C63.6753 127.013 63.0333 126.779 62.6133 126.311C62.1933 125.831 61.9833 124.901 61.9833 123.521V118.157H60.7953V117.221L62.0373 116.969L62.4333 114.521H63.4773V116.987ZM67.8019 121.631C67.8019 119.831 68.0959 118.469 68.6839 117.545C69.2839 116.609 70.2919 116.141 71.7079 116.141C73.1359 116.141 74.1499 116.609 74.7499 117.545C75.3499 118.469 75.6499 119.825 75.6499 121.613C75.6499 123.401 75.3499 124.763 74.7499 125.699C74.1499 126.623 73.1359 127.085 71.7079 127.085C70.2919 127.085 69.2839 126.623 68.6839 125.699C68.0959 124.775 67.8019 123.419 67.8019 121.631ZM73.1659 117.743C72.8539 117.539 72.3739 117.437 71.7259 117.437C71.0779 117.437 70.5919 117.539 70.2679 117.743C69.9559 117.947 69.7159 118.349 69.5479 118.949C69.3919 119.537 69.3139 120.425 69.3139 121.613C69.3139 122.801 69.3919 123.695 69.5479 124.295C69.7039 124.895 69.9439 125.297 70.2679 125.501C70.5919 125.705 71.0779 125.807 71.7259 125.807C72.3739 125.807 72.8539 125.705 73.1659 125.501C73.4899 125.297 73.7299 124.895 73.8859 124.295C74.0419 123.695 74.1199 122.801 74.1199 121.613C74.1199 120.425 74.0419 119.537 73.8859 118.949C73.7299 118.349 73.4899 117.947 73.1659 117.743ZM88.966 123.593H87.256L84.466 115.511H84.358L84.286 126.851H82.774L83.152 114.341H85.384L88.048 122.423H88.138L90.784 114.341H93.016L93.43 126.851H91.918L91.81 115.511H91.72L88.966 123.593ZM100.197 112.415L100.683 113.639L96.615 115.025L96.255 114.125L100.197 112.415ZM97.155 126.851V116.375H98.649V126.851H97.155ZM103.868 126.851H102.374V116.375H103.382L103.544 117.401H103.634C105.074 116.561 106.322 116.141 107.378 116.141C108.326 116.141 108.98 116.507 109.34 117.239C109.64 117.851 109.79 118.733 109.79 119.885V126.851H108.278V120.407C108.278 119.039 108.188 118.223 108.008 117.959C107.84 117.695 107.516 117.563 107.036 117.563C106.124 117.563 105.068 117.881 103.868 118.517V126.851ZM114.768 126.851H113.274V116.375H114.768V126.851ZM114.948 114.827H113.112V113.297H114.948V114.827ZM123.047 117.563C122.255 117.563 121.235 117.875 119.987 118.499V126.851H118.493V116.375H119.501L119.663 117.401H119.753C121.157 116.561 122.345 116.141 123.317 116.141C123.833 116.141 124.277 116.261 124.649 116.501C125.021 116.741 125.291 117.071 125.459 117.491C125.915 117.215 126.287 116.999 126.575 116.843C126.863 116.687 127.247 116.531 127.727 116.375C128.219 116.219 128.681 116.141 129.113 116.141C130.037 116.141 130.679 116.465 131.039 117.113C131.411 117.749 131.597 118.697 131.597 119.957V126.851H130.103V120.461C130.103 119.081 130.013 118.253 129.833 117.977C129.665 117.701 129.329 117.563 128.825 117.563C127.961 117.563 126.929 117.905 125.729 118.589C125.777 119.117 125.801 119.549 125.801 119.885V126.851H124.307V120.407C124.307 119.639 124.289 119.087 124.253 118.751C124.217 118.415 124.121 118.133 123.965 117.905C123.821 117.677 123.515 117.563 123.047 117.563ZM134.441 121.631C134.441 119.831 134.735 118.469 135.323 117.545C135.923 116.609 136.931 116.141 138.347 116.141C139.775 116.141 140.789 116.609 141.389 117.545C141.989 118.469 142.289 119.825 142.289 121.613C142.289 123.401 141.989 124.763 141.389 125.699C140.789 126.623 139.775 127.085 138.347 127.085C136.931 127.085 135.923 126.623 135.323 125.699C134.735 124.775 134.441 123.419 134.441 121.631ZM139.805 117.743C139.493 117.539 139.013 117.437 138.365 117.437C137.717 117.437 137.231 117.539 136.907 117.743C136.595 117.947 136.355 118.349 136.187 118.949C136.031 119.537 135.953 120.425 135.953 121.613C135.953 122.801 136.031 123.695 136.187 124.295C136.343 124.895 136.583 125.297 136.907 125.501C137.231 125.705 137.717 125.807 138.365 125.807C139.013 125.807 139.493 125.705 139.805 125.501C140.129 125.297 140.369 124.895 140.525 124.295C140.681 123.695 140.759 122.801 140.759 121.613C140.759 120.425 140.681 119.537 140.525 118.949C140.369 118.349 140.129 117.947 139.805 117.743ZM23.1153 146.115V144.675L26.0853 136.053L28.1013 136.323L25.3473 144.333V144.423L28.8573 144.333L29.3253 139.671H30.9093V144.297L32.0793 144.261V146.115H30.9093L30.9273 148.851H28.8213L28.8573 146.115H23.1153ZM34.0335 148.851V146.835H36.5175V148.851H34.0335ZM44.9117 148.797C44.4197 148.989 43.8377 149.085 43.1657 149.085C42.4937 149.085 41.9057 148.989 41.4017 148.797C40.9097 148.605 40.4537 148.275 40.0337 147.807C39.1697 146.859 38.7377 145.107 38.7377 142.551C38.7377 140.007 39.1697 138.255 40.0337 137.295C40.4537 136.839 40.9097 136.515 41.4017 136.323C41.9057 136.131 42.4937 136.035 43.1657 136.035C43.8377 136.035 44.4197 136.131 44.9117 136.323C45.4157 136.515 45.8777 136.839 46.2977 137.295C47.1497 138.243 47.5757 139.995 47.5757 142.551C47.5757 145.119 47.1497 146.871 46.2977 147.807C45.8777 148.275 45.4157 148.605 44.9117 148.797ZM40.8977 142.515C40.8977 144.339 41.0777 145.587 41.4377 146.259C41.7977 146.931 42.3737 147.267 43.1657 147.267C43.9697 147.267 44.5457 146.937 44.8937 146.277C45.2537 145.617 45.4337 144.513 45.4337 142.965C45.4337 141.417 45.3377 140.289 45.1457 139.581C44.9537 138.873 44.7017 138.411 44.3897 138.195C44.0897 137.967 43.6757 137.853 43.1477 137.853C42.6317 137.853 42.2177 137.967 41.9057 138.195C41.2337 138.699 40.8977 140.139 40.8977 142.515ZM55.6344 148.797C55.1424 148.989 54.5604 149.085 53.8884 149.085C53.2164 149.085 52.6284 148.989 52.1244 148.797C51.6324 148.605 51.1764 148.275 50.7564 147.807C49.8924 146.859 49.4604 145.107 49.4604 142.551C49.4604 140.007 49.8924 138.255 50.7564 137.295C51.1764 136.839 51.6324 136.515 52.1244 136.323C52.6284 136.131 53.2164 136.035 53.8884 136.035C54.5604 136.035 55.1424 136.131 55.6344 136.323C56.1384 136.515 56.6004 136.839 57.0204 137.295C57.8724 138.243 58.2984 139.995 58.2984 142.551C58.2984 145.119 57.8724 146.871 57.0204 147.807C56.6004 148.275 56.1384 148.605 55.6344 148.797ZM51.6204 142.515C51.6204 144.339 51.8004 145.587 52.1604 146.259C52.5204 146.931 53.0964 147.267 53.8884 147.267C54.6924 147.267 55.2684 146.937 55.6164 146.277C55.9764 145.617 56.1564 144.513 56.1564 142.965C56.1564 141.417 56.0604 140.289 55.8684 139.581C55.6764 138.873 55.4244 138.411 55.1124 138.195C54.8124 137.967 54.3984 137.853 53.8704 137.853C53.3544 137.853 52.9404 137.967 52.6284 138.195C51.9564 138.699 51.6204 140.139 51.6204 142.515ZM66.357 148.797C65.865 148.989 65.283 149.085 64.611 149.085C63.939 149.085 63.351 148.989 62.847 148.797C62.355 148.605 61.899 148.275 61.479 147.807C60.615 146.859 60.183 145.107 60.183 142.551C60.183 140.007 60.615 138.255 61.479 137.295C61.899 136.839 62.355 136.515 62.847 136.323C63.351 136.131 63.939 136.035 64.611 136.035C65.283 136.035 65.865 136.131 66.357 136.323C66.861 136.515 67.323 136.839 67.743 137.295C68.595 138.243 69.021 139.995 69.021 142.551C69.021 145.119 68.595 146.871 67.743 147.807C67.323 148.275 66.861 148.605 66.357 148.797ZM62.343 142.515C62.343 144.339 62.523 145.587 62.883 146.259C63.243 146.931 63.819 147.267 64.611 147.267C65.415 147.267 65.991 146.937 66.339 146.277C66.699 145.617 66.879 144.513 66.879 142.965C66.879 141.417 66.783 140.289 66.591 139.581C66.399 138.873 66.147 138.411 65.835 138.195C65.535 137.967 65.121 137.853 64.593 137.853C64.077 137.853 63.663 137.967 63.351 138.195C62.679 138.699 62.343 140.139 62.343 142.515ZM71.1937 148.851V146.835H73.6777V148.851H71.1937ZM82.0719 148.797C81.5799 148.989 80.9979 149.085 80.3259 149.085C79.6539 149.085 79.0659 148.989 78.5619 148.797C78.0699 148.605 77.6139 148.275 77.1939 147.807C76.3299 146.859 75.8979 145.107 75.8979 142.551C75.8979 140.007 76.3299 138.255 77.1939 137.295C77.6139 136.839 78.0699 136.515 78.5619 136.323C79.0659 136.131 79.6539 136.035 80.3259 136.035C80.9979 136.035 81.5799 136.131 82.0719 136.323C82.5759 136.515 83.0379 136.839 83.4579 137.295C84.3099 138.243 84.7359 139.995 84.7359 142.551C84.7359 145.119 84.3099 146.871 83.4579 147.807C83.0379 148.275 82.5759 148.605 82.0719 148.797ZM78.0579 142.515C78.0579 144.339 78.2379 145.587 78.5979 146.259C78.9579 146.931 79.5339 147.267 80.3259 147.267C81.1299 147.267 81.7059 146.937 82.0539 146.277C82.4139 145.617 82.5939 144.513 82.5939 142.965C82.5939 141.417 82.4979 140.289 82.3059 139.581C82.1139 138.873 81.8619 138.411 81.5499 138.195C81.2499 137.967 80.8359 137.853 80.3079 137.853C79.7919 137.853 79.3779 137.967 79.0659 138.195C78.3939 138.699 78.0579 140.139 78.0579 142.515ZM92.7945 148.797C92.3025 148.989 91.7205 149.085 91.0485 149.085C90.3765 149.085 89.7885 148.989 89.2845 148.797C88.7925 148.605 88.3365 148.275 87.9165 147.807C87.0525 146.859 86.6205 145.107 86.6205 142.551C86.6205 140.007 87.0525 138.255 87.9165 137.295C88.3365 136.839 88.7925 136.515 89.2845 136.323C89.7885 136.131 90.3765 136.035 91.0485 136.035C91.7205 136.035 92.3025 136.131 92.7945 136.323C93.2985 136.515 93.7605 136.839 94.1805 137.295C95.0325 138.243 95.4585 139.995 95.4585 142.551C95.4585 145.119 95.0325 146.871 94.1805 147.807C93.7605 148.275 93.2985 148.605 92.7945 148.797ZM88.7805 142.515C88.7805 144.339 88.9605 145.587 89.3205 146.259C89.6805 146.931 90.2565 147.267 91.0485 147.267C91.8525 147.267 92.4285 146.937 92.7765 146.277C93.1365 145.617 93.3165 144.513 93.3165 142.965C93.3165 141.417 93.2205 140.289 93.0285 139.581C92.8365 138.873 92.5845 138.411 92.2725 138.195C91.9725 137.967 91.5585 137.853 91.0305 137.853C90.5145 137.853 90.1005 137.967 89.7885 138.195C89.1165 138.699 88.7805 140.139 88.7805 142.515ZM103.517 148.797C103.025 148.989 102.443 149.085 101.771 149.085C101.099 149.085 100.511 148.989 100.007 148.797C99.5152 148.605 99.0592 148.275 98.6392 147.807C97.7752 146.859 97.3432 145.107 97.3432 142.551C97.3432 140.007 97.7752 138.255 98.6392 137.295C99.0592 136.839 99.5152 136.515 100.007 136.323C100.511 136.131 101.099 136.035 101.771 136.035C102.443 136.035 103.025 136.131 103.517 136.323C104.021 136.515 104.483 136.839 104.903 137.295C105.755 138.243 106.181 139.995 106.181 142.551C106.181 145.119 105.755 146.871 104.903 147.807C104.483 148.275 104.021 148.605 103.517 148.797ZM99.5032 142.515C99.5032 144.339 99.6832 145.587 100.043 146.259C100.403 146.931 100.979 147.267 101.771 147.267C102.575 147.267 103.151 146.937 103.499 146.277C103.859 145.617 104.039 144.513 104.039 142.965C104.039 141.417 103.943 140.289 103.751 139.581C103.559 138.873 103.307 138.411 102.995 138.195C102.695 137.967 102.281 137.853 101.753 137.853C101.237 137.853 100.823 137.967 100.511 138.195C99.8392 138.699 99.5032 140.139 99.5032 142.515ZM117.198 149.085C115.734 149.085 114.588 148.575 113.76 147.555C112.932 146.535 112.518 144.915 112.518 142.695C112.518 139.659 113.19 137.691 114.534 136.791C114.966 136.503 115.416 136.305 115.884 136.197C116.352 136.089 117.042 136.035 117.954 136.035C118.878 136.035 119.832 136.155 120.816 136.395L120.582 138.159C119.454 137.991 118.41 137.907 117.45 137.907C116.502 137.907 115.896 138.045 115.632 138.321C115.044 138.933 114.75 140.409 114.75 142.749C114.75 143.841 114.852 144.753 115.056 145.485C115.26 146.205 115.5 146.691 115.776 146.943C116.064 147.183 116.478 147.303 117.018 147.303C117.57 147.303 118.146 147.219 118.746 147.051C119.346 146.883 119.994 146.637 120.69 146.313L121.338 147.915C121.206 147.999 121.02 148.107 120.78 148.239C120.552 148.371 120.078 148.545 119.358 148.761C118.638 148.977 117.918 149.085 117.198 149.085ZM128.349 149.085C127.773 149.085 127.251 149.025 126.783 148.905C126.315 148.797 125.865 148.599 125.433 148.311C125.001 148.011 124.641 147.621 124.353 147.141C123.705 146.097 123.381 144.561 123.381 142.533C123.381 139.977 123.873 138.231 124.857 137.295C125.337 136.839 125.853 136.515 126.405 136.323C126.969 136.131 127.617 136.035 128.349 136.035C129.081 136.035 129.723 136.131 130.275 136.323C130.839 136.515 131.361 136.839 131.841 137.295C132.825 138.231 133.317 139.977 133.317 142.533C133.317 145.449 132.633 147.375 131.265 148.311C130.497 148.827 129.525 149.085 128.349 149.085ZM126.567 146.745C126.807 146.925 127.059 147.051 127.323 147.123C127.599 147.183 128.013 147.213 128.565 147.213C129.117 147.213 129.573 147.111 129.933 146.907C130.725 146.463 131.121 145.023 131.121 142.587C131.121 141.579 131.073 140.769 130.977 140.157C130.881 139.545 130.707 139.071 130.455 138.735C130.215 138.399 129.933 138.177 129.609 138.069C129.297 137.961 128.877 137.907 128.349 137.907C127.821 137.907 127.401 137.961 127.089 138.069C126.777 138.177 126.495 138.399 126.243 138.735C126.003 139.071 125.835 139.545 125.739 140.157C125.643 140.769 125.595 141.531 125.595 142.443C125.595 143.343 125.631 144.069 125.703 144.621C125.775 145.173 125.877 145.623 126.009 145.971C126.141 146.307 126.327 146.565 126.567 146.745ZM136.21 136.287C137.902 136.119 139.372 136.035 140.62 136.035C141.868 136.035 142.81 136.401 143.446 137.133C144.082 137.865 144.4 138.939 144.4 140.355C144.4 142.083 143.968 143.283 143.104 143.955C142.36 144.555 141.43 144.855 140.314 144.855L138.316 144.765V148.851H136.21L136.282 143.001L136.21 136.287ZM138.316 142.893C139.012 143.013 139.738 143.073 140.494 143.073C141.25 143.073 141.724 142.905 141.916 142.569C142.108 142.221 142.204 141.435 142.204 140.211C142.204 138.975 142.036 138.231 141.7 137.979C141.484 137.799 141.016 137.709 140.296 137.709C139.576 137.709 138.916 137.757 138.316 137.853V142.893Z" fill="black"/>
                <defs>
                <clipPath id="clip0_107_21">
                <rect width="91" height="96" fill="white" transform="translate(39)"/>
                </clipPath>
                </defs>
                </svg>
