<svg width="183" height="160" viewBox="0 0 160 168" fill="none" xmlns="http://www.w3.org/2000/svg">
                <g clipPath="url(#clip0_107_8)">
                <path d="M124.211 44.1985C123.949 62.9471 109.721 76.2057 92.9842 76.6218C74.1697 77.0864 60.0951 62.3371 60.087 44.4975C60.0672 40.2275 60.9016 35.9968 62.5409 32.055C64.1803 28.1131 66.5915 24.5401 69.6322 21.5466C72.6729 18.5531 76.2815 16.1999 80.2451 14.6258C84.2087 13.0516 88.447 12.2884 92.7099 12.3813C110.092 12.6479 124.034 26.8719 124.211 44.1985ZM121.92 44.7439C121.799 26.3791 106.797 13.4559 89.8659 14.6395C74.1172 15.7424 60.8777 29.1181 62.334 47.091C62.9895 54.8369 66.645 62.0185 72.5189 67.1006C78.3927 72.1827 86.0188 74.7619 93.7668 74.2868C110.605 73.3819 122.045 59.2992 121.928 44.7439H121.92Z" fill="#6DECB9"/>
                <path d="M45.117 44.2719C44.6651 39.4241 45.5849 34.7097 46.8354 30.0518C46.9565 29.6075 47.1824 29.1873 47.3155 28.743C47.3432 28.6149 47.3981 28.4942 47.4763 28.3891C47.5546 28.2841 47.6544 28.197 47.7691 28.1338C47.8838 28.0707 48.0107 28.0329 48.1412 28.0229C48.2717 28.013 48.4028 28.0313 48.5257 28.0764C48.6554 28.0967 48.7792 28.145 48.8884 28.2181C48.9975 28.2912 49.0895 28.3872 49.1578 28.4995C49.2262 28.6117 49.2693 28.7376 49.2841 28.8683C49.2989 28.9989 49.2852 29.1312 49.2437 29.256C49.1187 29.9185 48.9896 30.5811 48.804 31.2234C47.6692 35.1587 47.1641 39.2491 47.3074 43.3427C47.4597 49.144 48.7682 54.8563 51.1558 60.1441C54.2192 66.888 58.5655 72.9694 63.9516 78.0484C68.6714 82.5525 74.4247 85.8252 80.7048 87.5782C85.8199 89.0285 91.0802 89.1214 96.3607 88.4912C99.9542 88.0969 103.484 87.2499 106.865 85.9704C111.174 84.2939 115.203 82.1286 118.564 78.8523C119.08 78.3474 119.697 77.9434 120.202 77.4303C120.706 76.9173 121.335 76.687 121.989 77.1435C122.449 77.4667 122.303 78.1777 121.658 78.8806C119.448 81.2669 116.894 83.3093 114.082 84.9403C110.701 86.9312 107.065 88.452 103.275 89.4608C99.927 90.3409 96.4919 90.8462 93.0327 90.9676C90.0495 91.1082 87.0598 90.9729 84.1014 90.5636C79.6975 89.9616 75.4512 88.513 71.5961 86.2976C69.1958 84.8837 66.7553 83.4698 64.6294 81.6802C60.192 77.903 56.158 73.6855 53.1123 68.6236C50.4943 64.2809 48.1586 59.8129 46.7386 54.9409C46.0528 52.5817 45.7866 50.0932 45.3993 47.6693C45.2057 46.5422 45.1976 45.403 45.117 44.2719Z" fill="#6DECB9"/>
                <path d="M68.0341 9.00863C68.0704 7.7967 68.5827 6.98874 69.6235 6.26966C72.5689 4.25448 75.8246 2.73691 79.2607 1.77743C84.9686 0.0886151 90.9639 -0.398304 96.869 0.347347C102.057 1.02199 107.168 2.22584 111.839 4.65375C117.797 7.74418 123.183 11.6628 127.539 16.8458C131.589 21.6266 134.61 27.1921 136.414 33.1948C137.83 37.9092 138.879 42.7004 138.98 47.641C138.959 49.3325 138.839 51.0213 138.621 52.6988C138.568 53.1107 138.41 53.5019 138.161 53.834C138.054 53.9346 137.926 54.0108 137.787 54.0575C137.648 54.1043 137.5 54.1203 137.354 54.1047C137.185 54.1047 136.951 53.7815 136.91 53.5714C136.807 53.0639 136.764 52.5459 136.781 52.0282C137.079 45.3981 136.101 38.7725 133.901 32.5121C132.506 28.452 130.545 24.6098 128.076 21.0997C125.715 17.7625 122.888 14.7817 119.681 12.2485C114.11 7.82902 107.946 4.57296 100.871 3.18327C97.382 2.43039 93.8174 2.08739 90.2493 2.16121C83.4318 2.42379 76.9371 3.87407 71.1927 7.75226C70.7651 8.03908 70.3859 8.39862 69.9825 8.70968C69.2443 9.27929 69.0264 9.32373 68.0341 9.00863Z" fill="#6DECB9"/>
                <path d="M126.119 73.3742H120.472C120.113 73.404 119.752 73.3972 119.395 73.354C119.133 73.3364 118.888 73.2155 118.715 73.0179C118.542 72.8203 118.454 72.562 118.471 72.2997C118.463 72.17 118.481 72.04 118.524 71.9175C118.567 71.7949 118.634 71.6822 118.721 71.5861C118.808 71.49 118.914 71.4125 119.032 71.3581C119.15 71.3037 119.277 71.2736 119.407 71.2695C120.171 71.1506 120.941 71.0818 121.714 71.0635C123.207 71.0635 124.695 71.1604 126.184 71.2372C127.927 71.3261 128.56 72.13 128.148 73.8671C127.689 75.8143 127.14 77.7412 126.619 79.6723C126.543 79.9672 126.49 80.3509 126.285 80.5125C125.958 80.767 125.45 81.0781 125.139 80.9811C124.954 80.8775 124.799 80.7286 124.688 80.5484C124.576 80.3682 124.512 80.1627 124.502 79.951C124.63 79.14 124.821 78.3404 125.074 77.5594C125.421 76.2708 125.72 74.978 126.119 73.3742Z" fill="#6DECB9"/>
                <path d="M65.658 11.602C66.4406 11.4929 66.9892 11.4485 67.5258 11.3353C68.7844 11.0728 70.0228 10.7132 71.2935 10.5274C71.7655 10.4627 72.2939 10.8021 72.7135 10.9314C72.8506 12.111 72.3787 12.6079 71.5033 12.7937C69.5387 13.1977 67.5822 13.634 65.6096 14.0056C64.2381 14.2682 63.0521 13.533 63.4676 11.7474C63.9597 9.64268 64.472 7.54199 65.0247 5.45746C65.2627 4.56063 65.7508 4.18897 66.2349 4.42328C66.9045 4.74242 66.9771 5.31608 66.8279 5.9988C66.4326 7.77226 66.0856 9.53764 65.658 11.602Z" fill="#6DECB9"/>
                <path d="M86.7598 42.0869C84.646 39.8852 82.5039 37.6431 80.37 35.4172C80.1001 35.1781 79.8795 34.8885 79.7205 34.5648C79.559 34.2143 79.5388 33.8149 79.664 33.4498C79.7293 33.3357 79.8173 33.2362 79.9226 33.1575C80.0278 33.0789 80.148 33.0226 80.2758 32.9923C80.4036 32.962 80.5363 32.9583 80.6656 32.9814C80.7949 33.0045 80.918 33.0539 81.0275 33.1266C81.5008 33.4344 81.9355 33.7979 82.3224 34.2093C84.2144 36.1686 86.0821 38.1481 87.97 40.1154C88.0603 40.1893 88.1576 40.2543 88.2604 40.3093C89.983 39.1822 91.8104 39.1338 93.7063 39.9821L99.3539 34.48C101.431 32.4601 103.497 30.4402 105.586 28.4203C105.837 28.1628 106.156 27.9833 106.506 27.9032C106.688 27.8647 106.875 27.8641 107.057 27.9017C107.239 27.9392 107.411 28.014 107.563 28.1213C107.666 28.2797 107.728 28.4607 107.745 28.6486C107.762 28.8366 107.733 29.0259 107.66 29.2C107.303 29.7668 106.871 30.2831 106.377 30.7351C103.268 33.7568 100.149 36.7678 97.0182 39.768C96.4293 40.3336 95.7798 40.8386 95.0859 41.4324C95.7798 42.7332 96.2316 44.0785 95.5095 45.4277C95.0751 46.2855 94.4996 47.0639 93.8072 47.7304C92.4033 49.0151 90.112 48.9423 88.4823 47.9284C86.6953 46.8255 86.1144 44.8501 86.7598 42.0869ZM91.1972 46.4296C92.3348 46.4296 93.549 45.2985 93.553 44.2158C93.5759 43.5427 93.3315 42.888 92.8733 42.3951C92.4151 41.9021 91.7805 41.6112 91.1084 41.5859C90.4854 41.5714 89.8813 41.801 89.4248 42.2258C88.9682 42.6506 88.6952 43.237 88.6638 43.8603C88.667 44.538 88.9361 45.1872 89.4131 45.6679C89.89 46.1486 90.5367 46.4222 91.2133 46.4296H91.1972Z" fill="#6DECB9"/>
                <path d="M67.9978 46.6632C67.2314 46.5824 66.469 46.4855 65.6985 46.4329C65.4091 46.4359 65.1294 46.3286 64.9159 46.1329C64.7025 45.9371 64.5713 45.6675 64.5488 45.3786C64.5261 45.2352 64.5354 45.0885 64.5759 44.9491C64.6164 44.8097 64.6872 44.6809 64.7832 44.5721C64.8791 44.4633 64.9979 44.377 65.131 44.3195C65.2642 44.2619 65.4083 44.2346 65.5532 44.2393C66.9314 44.2251 68.3092 44.2899 69.68 44.4333C69.8114 44.4375 69.9403 44.4705 70.0576 44.53C70.1749 44.5895 70.2777 44.6741 70.3589 44.7777C70.44 44.8813 70.4975 45.0014 70.5273 45.1297C70.557 45.2579 70.5584 45.3911 70.5312 45.52C70.5009 45.8064 70.3698 46.0726 70.1614 46.271C69.9529 46.4694 69.6807 46.5869 69.3936 46.6026C68.9337 46.639 68.4658 46.6026 68.0019 46.6026L67.9978 46.6632Z" fill="#6DECB9"/>
                <path d="M91.2538 20.029C91.2154 19.4128 91.2154 18.7949 91.2538 18.1788C91.3183 17.6819 91.4595 17.1365 92.1211 17.0557C92.4064 17.0011 92.7018 17.0572 92.9474 17.2124C93.1931 17.3677 93.3707 17.6105 93.4443 17.8919C93.8304 19.124 93.8135 20.4474 93.3958 21.6691C93.3076 21.9113 93.1522 22.1233 92.9478 22.28C92.7434 22.4367 92.4986 22.5317 92.2421 22.5538C91.5402 22.6872 91.1368 22.4367 91.0924 21.7257C91.0865 21.1589 91.1148 20.5923 91.1771 20.029H91.2538Z" fill="#6DECB9"/>
                <path d="M116.829 43.4885C117.44 43.5333 118.045 43.6375 118.636 43.7996C118.816 43.878 118.976 43.9967 119.103 44.1465C119.231 44.2964 119.322 44.4734 119.37 44.6641C119.354 44.8623 119.296 45.0549 119.201 45.2294C119.106 45.404 118.975 45.5568 118.818 45.6781C118.197 46.1871 115.361 46.183 114.784 45.6781C114.55 45.4801 114.284 44.9832 114.38 44.8095C114.619 44.3226 114.99 43.9126 115.449 43.6259C115.817 43.436 116.361 43.5895 116.829 43.5895V43.4885Z" fill="#6DECB9"/>
                <path d="M90.6567 68.5303C90.659 67.8675 90.7211 67.2064 90.8423 66.5548C90.9136 66.3794 91.023 66.222 91.1625 66.0941C91.3021 65.9663 91.4683 65.8711 91.6491 65.8156C91.8162 65.8266 91.9778 65.8797 92.1189 65.9702C92.26 66.0606 92.3759 66.1853 92.4559 66.3326C92.8593 67.694 93.2425 69.1039 92.4236 70.4492C92.3262 70.6049 92.1937 70.7357 92.0368 70.8311C91.8799 70.9265 91.7029 70.9838 91.52 70.9986C91.341 70.9313 91.1801 70.8233 91.0498 70.6831C90.9196 70.5429 90.8237 70.3743 90.7697 70.1906C90.6962 69.6402 90.6854 69.0832 90.7374 68.5303H90.6567Z" fill="#6DECB9"/>
                </g>
                <path d="M33.8506 127H32.2486L35.7766 114.49H37.6666L41.1946 127H39.5746L38.7106 123.652H34.7326L33.8506 127ZM38.4226 122.392L36.7666 115.714H36.6586L35.0026 122.392H38.4226ZM44.4463 127H42.9523V113.446H44.4463V117.172C45.8023 116.584 46.8583 116.29 47.6143 116.29C48.6343 116.29 49.3423 116.596 49.7383 117.208C50.1463 117.808 50.3503 118.75 50.3503 120.034V127H48.8563V120.556C48.8563 119.248 48.7363 118.42 48.4963 118.072C48.3163 117.82 47.9983 117.694 47.5423 117.694C46.6783 117.694 45.7963 117.88 44.8963 118.252L44.4463 118.45V127ZM53.194 121.78C53.194 119.98 53.488 118.618 54.076 117.694C54.676 116.758 55.684 116.29 57.1 116.29C58.528 116.29 59.542 116.758 60.142 117.694C60.742 118.618 61.042 119.974 61.042 121.762C61.042 123.55 60.742 124.912 60.142 125.848C59.542 126.772 58.528 127.234 57.1 127.234C55.684 127.234 54.676 126.772 54.076 125.848C53.488 124.924 53.194 123.568 53.194 121.78ZM58.558 117.892C58.246 117.688 57.766 117.586 57.118 117.586C56.47 117.586 55.984 117.688 55.66 117.892C55.348 118.096 55.108 118.498 54.94 119.098C54.784 119.686 54.706 120.574 54.706 121.762C54.706 122.95 54.784 123.844 54.94 124.444C55.096 125.044 55.336 125.446 55.66 125.65C55.984 125.854 56.47 125.956 57.118 125.956C57.766 125.956 58.246 125.854 58.558 125.65C58.882 125.446 59.122 125.044 59.278 124.444C59.434 123.844 59.512 122.95 59.512 121.762C59.512 120.574 59.434 119.686 59.278 119.098C59.122 118.498 58.882 118.096 58.558 117.892ZM68.9291 117.82C68.6531 117.796 68.3531 117.784 68.0291 117.784C67.7171 117.784 67.3091 117.88 66.8051 118.072C66.3011 118.264 65.9051 118.474 65.6171 118.702V127H64.1231V116.524H65.0771L65.2751 117.586H65.3831C65.8751 117.226 66.3971 116.92 66.9491 116.668C67.5011 116.416 67.9571 116.29 68.3171 116.29L69.0551 116.38L68.9291 117.82ZM76.0307 117.82C75.7547 117.796 75.4547 117.784 75.1307 117.784C74.8187 117.784 74.4107 117.88 73.9067 118.072C73.4027 118.264 73.0067 118.474 72.7187 118.702V127H71.2247V116.524H72.1787L72.3767 117.586H72.4847C72.9767 117.226 73.4987 116.92 74.0507 116.668C74.6027 116.416 75.0587 116.29 75.4187 116.29L76.1567 116.38L76.0307 117.82ZM81.3566 120.556H83.2646C83.2646 119.152 83.1566 118.306 82.9406 118.018C82.7366 117.73 82.3526 117.586 81.7886 117.586C81.2246 117.586 80.6246 117.664 79.9886 117.82C79.3646 117.964 78.6926 118.186 77.9726 118.486L77.4506 117.316C77.6066 117.244 77.8106 117.154 78.0626 117.046C78.3266 116.926 78.8126 116.77 79.5206 116.578C80.2286 116.386 80.8766 116.29 81.4646 116.29C83.6606 116.29 84.7586 117.562 84.7586 120.106V127H83.7866L83.5706 125.902H83.4626C83.3426 125.998 83.1746 126.124 82.9586 126.28C82.7426 126.424 82.3346 126.622 81.7346 126.874C81.1346 127.114 80.5706 127.234 80.0426 127.234C79.1906 127.234 78.5066 126.946 77.9906 126.37C77.4746 125.782 77.2166 124.924 77.2166 123.796C77.2166 122.656 77.5706 121.834 78.2786 121.33C78.9866 120.814 80.0126 120.556 81.3566 120.556ZM83.2646 121.942C82.7486 121.858 82.0166 121.816 81.0686 121.816C80.1326 121.816 79.5326 121.93 79.2686 122.158C78.9446 122.41 78.7826 122.944 78.7826 123.76C78.7826 124.564 78.8966 125.122 79.1246 125.434C79.3646 125.746 79.7186 125.902 80.1866 125.902C80.6666 125.902 81.1526 125.824 81.6446 125.668C82.1366 125.5 82.6766 125.254 83.2646 124.93V121.942ZM94.01 117.136H96.098V118.342H94.01V123.778C94.01 124.786 94.058 125.392 94.154 125.596C94.262 125.8 94.58 125.902 95.108 125.902L96.08 125.866V127.072C95.828 127.132 95.492 127.162 95.072 127.162C94.208 127.162 93.566 126.928 93.146 126.46C92.726 125.98 92.516 125.05 92.516 123.67V118.306H91.328V117.37L92.57 117.118L92.966 114.67H94.01V117.136ZM100.477 127H98.9827V116.524H100.477V127ZM100.657 114.976H98.8207V113.446H100.657V114.976ZM107.819 127.234C105.035 127.234 103.643 125.41 103.643 121.762C103.643 118.114 105.023 116.29 107.783 116.29C109.007 116.29 109.925 116.674 110.537 117.442C111.149 118.198 111.455 119.458 111.455 121.222V122.338H105.227C105.227 123.958 105.485 125.008 106.001 125.488C106.325 125.776 106.769 125.92 107.333 125.92C108.341 125.92 109.331 125.752 110.303 125.416L110.789 125.236L111.167 126.46C110.159 126.976 109.043 127.234 107.819 127.234ZM109.511 118.126C109.271 117.766 108.683 117.586 107.747 117.586C106.811 117.586 106.157 117.832 105.785 118.324C105.413 118.816 105.227 119.758 105.227 121.15L109.925 121.06C109.925 119.56 109.787 118.582 109.511 118.126ZM119.003 117.712C118.211 117.712 117.191 118.024 115.943 118.648V127H114.449V116.524H115.457L115.619 117.55H115.709C117.113 116.71 118.301 116.29 119.273 116.29C119.789 116.29 120.233 116.41 120.605 116.65C120.977 116.89 121.247 117.22 121.415 117.64C121.871 117.364 122.243 117.148 122.531 116.992C122.819 116.836 123.203 116.68 123.683 116.524C124.175 116.368 124.637 116.29 125.069 116.29C125.993 116.29 126.635 116.614 126.995 117.262C127.367 117.898 127.553 118.846 127.553 120.106V127H126.059V120.61C126.059 119.23 125.969 118.402 125.789 118.126C125.621 117.85 125.285 117.712 124.781 117.712C123.917 117.712 122.885 118.054 121.685 118.738C121.733 119.266 121.757 119.698 121.757 120.034V127H120.263V120.556C120.263 119.788 120.245 119.236 120.209 118.9C120.173 118.564 120.077 118.282 119.921 118.054C119.777 117.826 119.471 117.712 119.003 117.712ZM132.161 129.988H130.667V116.524H131.675L131.873 117.586H131.963C131.987 117.574 132.119 117.484 132.359 117.316C132.599 117.148 132.827 116.998 133.043 116.866C133.271 116.734 133.577 116.608 133.961 116.488C134.345 116.356 134.723 116.29 135.095 116.29C136.103 116.29 136.883 116.722 137.435 117.586C137.987 118.45 138.263 119.776 138.263 121.564C138.263 125.344 136.997 127.234 134.465 127.234C133.913 127.234 133.145 127.15 132.161 126.982V129.988ZM132.161 125.542C133.181 125.794 133.991 125.92 134.591 125.92C135.191 125.92 135.605 125.824 135.833 125.632C136.397 125.164 136.679 123.712 136.679 121.276C136.679 119.404 136.505 118.294 136.157 117.946C135.953 117.742 135.629 117.64 135.185 117.64C134.741 117.64 134.267 117.724 133.763 117.892C133.271 118.048 132.737 118.288 132.161 118.612V125.542ZM140.786 121.78C140.786 119.98 141.08 118.618 141.668 117.694C142.268 116.758 143.276 116.29 144.692 116.29C146.12 116.29 147.134 116.758 147.734 117.694C148.334 118.618 148.634 119.974 148.634 121.762C148.634 123.55 148.334 124.912 147.734 125.848C147.134 126.772 146.12 127.234 144.692 127.234C143.276 127.234 142.268 126.772 141.668 125.848C141.08 124.924 140.786 123.568 140.786 121.78ZM146.15 117.892C145.838 117.688 145.358 117.586 144.71 117.586C144.062 117.586 143.576 117.688 143.252 117.892C142.94 118.096 142.7 118.498 142.532 119.098C142.376 119.686 142.298 120.574 142.298 121.762C142.298 122.95 142.376 123.844 142.532 124.444C142.688 125.044 142.928 125.446 143.252 125.65C143.576 125.854 144.062 125.956 144.71 125.956C145.358 125.956 145.838 125.854 146.15 125.65C146.474 125.446 146.714 125.044 146.87 124.444C147.026 123.844 147.104 122.95 147.104 121.762C147.104 120.574 147.026 119.686 146.87 119.098C146.714 118.498 146.474 118.096 146.15 117.892ZM40.2226 149V147.2L43.2826 147.236L43.3906 138.542H43.3006L40.9066 141.026L39.5386 139.658L43.3006 136.292L45.3886 136.436V147.236L48.0706 147.2V149H40.2226ZM55.6163 148.946C55.1243 149.138 54.5423 149.234 53.8703 149.234C53.1983 149.234 52.6103 149.138 52.1063 148.946C51.6143 148.754 51.1583 148.424 50.7383 147.956C49.8743 147.008 49.4423 145.256 49.4423 142.7C49.4423 140.156 49.8743 138.404 50.7383 137.444C51.1583 136.988 51.6143 136.664 52.1063 136.472C52.6103 136.28 53.1983 136.184 53.8703 136.184C54.5423 136.184 55.1243 136.28 55.6163 136.472C56.1203 136.664 56.5823 136.988 57.0023 137.444C57.8543 138.392 58.2803 140.144 58.2803 142.7C58.2803 145.268 57.8543 147.02 57.0023 147.956C56.5823 148.424 56.1203 148.754 55.6163 148.946ZM51.6023 142.664C51.6023 144.488 51.7823 145.736 52.1423 146.408C52.5023 147.08 53.0783 147.416 53.8703 147.416C54.6743 147.416 55.2503 147.086 55.5983 146.426C55.9583 145.766 56.1383 144.662 56.1383 143.114C56.1383 141.566 56.0423 140.438 55.8503 139.73C55.6583 139.022 55.4063 138.56 55.0943 138.344C54.7943 138.116 54.3803 138.002 53.8523 138.002C53.3363 138.002 52.9223 138.116 52.6103 138.344C51.9383 138.848 51.6023 140.288 51.6023 142.664ZM66.339 148.946C65.847 149.138 65.265 149.234 64.593 149.234C63.921 149.234 63.333 149.138 62.829 148.946C62.337 148.754 61.881 148.424 61.461 147.956C60.597 147.008 60.165 145.256 60.165 142.7C60.165 140.156 60.597 138.404 61.461 137.444C61.881 136.988 62.337 136.664 62.829 136.472C63.333 136.28 63.921 136.184 64.593 136.184C65.265 136.184 65.847 136.28 66.339 136.472C66.843 136.664 67.305 136.988 67.725 137.444C68.577 138.392 69.003 140.144 69.003 142.7C69.003 145.268 68.577 147.02 67.725 147.956C67.305 148.424 66.843 148.754 66.339 148.946ZM62.325 142.664C62.325 144.488 62.505 145.736 62.865 146.408C63.225 147.08 63.801 147.416 64.593 147.416C65.397 147.416 65.973 147.086 66.321 146.426C66.681 145.766 66.861 144.662 66.861 143.114C66.861 141.566 66.765 140.438 66.573 139.73C66.381 139.022 66.129 138.56 65.817 138.344C65.517 138.116 65.103 138.002 64.575 138.002C64.059 138.002 63.645 138.116 63.333 138.344C62.661 138.848 62.325 140.288 62.325 142.664ZM73.0116 149.162L76.6836 141.926L79.5096 135.806H81.3456L77.9256 142.754L74.8656 149.162H73.0116ZM75.6396 141.116C75.0876 141.584 74.4156 141.818 73.6236 141.818C72.8316 141.818 72.1536 141.584 71.5896 141.116C71.0376 140.636 70.7616 139.91 70.7616 138.938C70.7616 137.966 71.0376 137.252 71.5896 136.796C72.1416 136.328 72.8196 136.094 73.6236 136.094C74.4276 136.094 75.1056 136.328 75.6576 136.796C76.2096 137.252 76.4856 137.966 76.4856 138.938C76.4856 139.91 76.2036 140.636 75.6396 141.116ZM82.9296 148.532C82.3776 149 81.6996 149.234 80.8956 149.234C80.0916 149.234 79.4136 149 78.8616 148.532C78.3096 148.064 78.0336 147.344 78.0336 146.372C78.0336 145.388 78.3096 144.668 78.8616 144.212C79.4136 143.744 80.0916 143.51 80.8956 143.51C81.6996 143.51 82.3776 143.744 82.9296 144.212C83.4816 144.668 83.7576 145.388 83.7576 146.372C83.7576 147.344 83.4816 148.064 82.9296 148.532ZM72.4176 138.956C72.4176 139.796 72.8196 140.216 73.6236 140.216C74.4396 140.216 74.8476 139.796 74.8476 138.956C74.8476 138.116 74.4396 137.696 73.6236 137.696C72.8196 137.696 72.4176 138.116 72.4176 138.956ZM79.6896 146.372C79.6896 147.212 80.0916 147.632 80.8956 147.632C81.6996 147.632 82.1016 147.212 82.1016 146.372C82.1016 145.532 81.6996 145.112 80.8956 145.112C80.0916 145.112 79.6896 145.532 79.6896 146.372ZM93.3854 149.234C92.3414 149.234 91.5014 148.79 90.8654 147.902C90.2294 147.002 89.9114 145.664 89.9114 143.888C89.9114 141.416 90.4994 139.748 91.6754 138.884C92.2874 138.452 93.0254 138.236 93.8894 138.236C94.4774 138.236 95.2154 138.35 96.1034 138.578V135.374H98.1914V149H96.8234L96.5894 147.938H96.4814C96.1334 148.202 95.8454 148.406 95.6174 148.55C95.3894 148.694 95.0594 148.844 94.6274 149C94.2074 149.156 93.7934 149.234 93.3854 149.234ZM96.1034 140.432C95.3714 140.132 94.6634 139.982 93.9794 139.982C93.3074 139.982 92.8694 140.108 92.6654 140.36C92.2694 140.864 92.0714 142.04 92.0714 143.888C92.0714 145.724 92.2994 146.834 92.7554 147.218C92.9114 147.362 93.1754 147.434 93.5474 147.434C94.2434 147.434 94.9694 147.236 95.7254 146.84L96.1034 146.642V140.432ZM101.405 149V138.47H103.493V149H101.405ZM101.243 137.066V135.374H103.655V137.066H101.243ZM106.419 150.062C108.507 150.374 110.037 150.53 111.009 150.53C111.993 150.53 112.485 150.38 112.485 150.08C112.485 149.888 112.323 149.696 111.999 149.504C111.687 149.312 110.907 148.958 109.659 148.442C108.411 147.914 107.787 147.638 107.787 147.614L108.525 145.544C106.797 144.98 105.933 143.828 105.933 142.088C105.933 140.732 106.347 139.754 107.175 139.154C108.015 138.542 109.107 138.236 110.451 138.236C111.195 138.236 112.575 138.308 114.591 138.452V139.712L113.439 139.892C113.799 140.684 113.979 141.434 113.979 142.142C113.979 143.198 113.607 144.056 112.863 144.716C112.131 145.376 111.117 145.712 109.821 145.724C109.773 146.192 109.749 146.456 109.749 146.516C109.749 146.576 110.301 146.834 111.405 147.29C112.521 147.746 113.271 148.148 113.655 148.496C114.051 148.832 114.249 149.264 114.249 149.792C114.249 150.56 113.859 151.154 113.079 151.574C112.311 152.006 111.291 152.222 110.019 152.222C108.855 152.222 107.745 152.09 106.689 151.826L106.185 151.7L106.419 150.062ZM110.127 139.892C109.275 139.892 108.675 140.042 108.327 140.342C107.991 140.642 107.823 141.194 107.823 141.998C107.823 142.802 107.979 143.348 108.291 143.636C108.615 143.924 109.155 144.068 109.911 144.068C110.679 144.068 111.213 143.93 111.513 143.654C111.813 143.366 111.963 142.838 111.963 142.07C111.963 141.302 111.921 140.78 111.837 140.504C111.753 140.216 111.693 140.06 111.657 140.036C111.585 139.988 111.075 139.94 110.127 139.892ZM116.785 149V138.47H118.873V149H116.785ZM116.623 137.066V135.374H119.035V137.066H116.623ZM122.484 145.58V140.63H121.278V139.334L122.574 139.082L122.988 136.598H124.59V139.046H126.696V140.666H124.572V145.67C124.572 146.474 124.62 146.972 124.716 147.164C124.824 147.344 125.094 147.434 125.526 147.434L126.678 147.38V149.054C126.27 149.15 125.796 149.198 125.256 149.198C124.308 149.198 123.606 148.952 123.15 148.46C122.706 147.956 122.484 146.996 122.484 145.58ZM131.408 149.234C130.484 149.234 129.74 148.946 129.176 148.37C128.624 147.782 128.348 146.912 128.348 145.76C128.348 144.596 128.72 143.75 129.464 143.222C130.22 142.694 131.306 142.43 132.722 142.43L134.45 142.448C134.45 141.284 134.354 140.582 134.162 140.342C133.982 140.09 133.622 139.964 133.082 139.964C132.542 139.964 131.936 140.03 131.264 140.162C130.604 140.294 129.902 140.498 129.158 140.774L128.6 139.244C128.768 139.172 128.99 139.082 129.266 138.974C129.554 138.854 130.082 138.704 130.85 138.524C131.618 138.332 132.32 138.236 132.956 138.236C135.344 138.236 136.538 139.532 136.538 142.124V149H135.206L134.918 147.866H134.828C134.696 147.974 134.516 148.106 134.288 148.262C134.072 148.406 133.658 148.604 133.046 148.856C132.446 149.108 131.9 149.234 131.408 149.234ZM134.45 144.14C133.958 144.068 133.292 144.032 132.452 144.032C131.612 144.032 131.09 144.134 130.886 144.338C130.622 144.578 130.49 145.04 130.49 145.724C130.49 146.396 130.574 146.858 130.742 147.11C130.922 147.35 131.204 147.47 131.588 147.47C131.984 147.47 132.416 147.404 132.884 147.272C133.364 147.128 133.886 146.924 134.45 146.66V144.14ZM139.578 149V135.374H141.666V149H139.578Z" fill="black"/>
                <defs>
                <clipPath id="clip0_107_8">
                <rect width="94" height="91" fill="white" transform="translate(45)"/>
                </clipPath>
                </defs>
                </svg>