                <svg width="167" height="150" viewBox="0 0 167 150" fill="none" xmlns="http://www.w3.org/2000/svg">
                <g clipPath="url(#clip0_107_34)">
                <path d="M36.8166 64.4583C36.7211 63.4595 36.6005 62.7904 36.6005 62.1063C36.6005 56.6132 36.6005 51.1202 36.6306 45.6272C36.6306 36.1392 36.6306 26.6812 36.6658 17.2082C36.6517 16.1994 36.7649 15.1928 37.0026 14.212C37.3495 12.9336 37.7918 12.7139 39.0938 12.7139L64.3585 12.9685C75.6588 13.0884 86.959 13.2066 98.2593 13.3231C101.919 13.3631 105.578 13.3231 109.238 13.388C110.902 13.413 112.561 13.5478 114.219 13.6077C115.104 13.6377 115.989 13.6077 117.039 13.6077C117.1 11.4155 117.16 9.38809 117.205 7.36066C117.241 5.86256 117.271 4.41438 117.286 2.94625C117.286 1.05864 118.512 -0.289642 120.83 0.0549211C125.856 0.803972 129.657 3.27083 132.738 7.1609C134.07 8.83878 133.965 10.7563 133.995 12.624C134.065 17.0284 133.945 21.4378 133.904 25.8472C133.864 30.8409 133.854 35.8346 133.784 40.7933C133.728 44.7483 133.653 48.7082 133.487 52.6632C133.436 54.1968 133.227 55.7212 132.864 57.2125C132.312 59.1709 131.137 60.8993 129.514 62.1389C127.891 63.3784 125.908 64.0625 123.861 64.0887C116.708 64.1137 109.55 64.0887 102.396 64.0887C97.7717 64.0887 93.1521 64.2336 88.5274 64.2486C81.5251 64.2486 74.5177 64.2036 67.5153 64.2486C60.0606 64.2835 52.6058 64.4034 45.146 64.4733C42.4416 64.4833 39.7523 64.4583 36.8166 64.4583ZM67.9828 38.4263C67.9828 50.5109 77.1216 60.4434 89.95 60.723C102.416 60.9927 112.41 51.6995 112.666 38.9806C112.917 26.3915 103.196 16.7737 91.0509 16.2094C78.8709 15.6402 67.9828 25.9321 67.9828 38.4263ZM39.2496 15.5503V61.4021H79.5696C70.7174 56.3535 65.4543 49.1876 65.2281 38.9706C65.0019 28.7535 69.9584 21.298 79.1424 16.0297L39.2496 15.5503ZM131.079 48.6683C131.2 48.3753 131.283 48.0683 131.326 47.7545C131.326 44.1291 131.28 40.5086 131.28 36.8832C131.28 34.0918 131.351 31.3053 131.351 28.5138C131.351 22.9908 131.29 17.4678 131.351 11.9448C131.382 11.1777 131.246 10.4129 130.954 9.70218C130.662 8.99144 130.22 8.3513 129.657 7.82507C128.306 6.5606 126.851 5.40976 125.309 4.38442C123.711 3.36408 121.843 2.84229 119.945 2.88632C119.583 17.5228 119.226 32.0444 118.864 46.6059C123.78 44.968 126.384 44.7283 131.094 48.6683H131.079ZM100.959 60.9977L101.21 61.2873C105 61.2873 108.79 61.2873 112.581 61.2873C114.893 61.2873 117.205 61.1375 119.518 61.1175C121.192 61.1175 122.866 61.2573 124.545 61.2074C125.377 61.2023 126.198 61.013 126.947 60.6531C128.477 59.8555 129.637 58.5007 130.183 56.8724C130.729 55.2442 130.62 53.4691 129.878 51.9192C129.472 51.0428 128.872 50.2691 128.123 49.6558C127.374 49.0425 126.494 48.6057 125.551 48.3779C124.607 48.1502 123.624 48.1376 122.675 48.3409C121.726 48.5443 120.836 48.9584 120.071 49.5522C119.1 50.2763 118.186 50.461 117.23 50.0515C116.275 49.6421 116.225 48.6733 116.25 47.7245C116.306 46.1964 116.28 44.6584 116.321 43.1303C116.481 36.8033 116.673 30.4814 116.823 24.1544C116.879 21.6126 116.823 19.0708 116.823 16.549C112.847 16.1145 103.527 16.2144 102.442 16.6838C110.927 21.8273 115.632 29.3778 115.32 39.1903C115.009 49.0029 110.047 56.4584 100.974 60.9977H100.959Z" fill="#6DECB9"/>
                <path d="M45.6739 5.60306C52.3696 5.60306 59.0654 5.60306 65.7812 5.60306C67.2591 5.60306 67.8221 6.02253 67.8472 6.79156C67.8723 7.56059 67.4048 7.92513 65.8013 7.9501C59.749 8.04331 53.6951 8.11154 47.6394 8.15482C40.7075 8.20975 33.7705 8.22973 26.8335 8.2497C26.1902 8.2456 25.5476 8.20895 24.9082 8.13986C24.0938 8.06495 23.5459 7.61551 23.5861 6.78656C23.6264 5.95761 24.2547 5.57811 25.0489 5.55814C26.4665 5.52318 27.8841 5.5082 29.3016 5.49822L42.0295 5.46326H45.694L45.6739 5.60306Z" fill="#6DECB9"/>
                <path d="M26.6072 66.6405C33.4637 66.9601 39.6266 67.2148 45.7844 67.5444C48.9865 67.7192 52.1785 68.0438 55.3756 68.2835C55.7572 68.3227 56.1322 68.4099 56.4916 68.5431C57.1551 68.7728 57.6376 69.1623 57.4517 69.9613C57.3949 70.2828 57.215 70.57 56.9499 70.7627C56.6847 70.9554 56.3547 71.0386 56.0291 70.995C54.1038 70.9051 52.1785 70.7803 50.2533 70.6654C45.7643 70.3908 41.2704 70.0712 36.7764 69.8465C32.6092 69.6417 28.4319 69.5419 24.2596 69.3471C23.5509 69.3171 22.8521 69.1224 22.1484 69.1024C21.4446 69.0824 20.8917 68.7828 20.7861 68.0388C20.6805 67.2947 21.3491 66.6655 22.2941 66.6305C23.953 66.6006 25.6269 66.6405 26.6072 66.6405Z" fill="#6DECB9"/>
                <path d="M24.7525 44.0792C21.9224 44.0792 19.0973 44.0243 16.2723 44.1041C14.8497 44.1441 14.0906 43.5648 14.0152 42.8158C13.9398 42.0667 14.9804 41.4026 16.3275 41.3926L30.7846 41.3127C31.6844 41.3127 32.5842 41.3526 33.484 41.4126C33.8669 41.3992 34.246 41.4907 34.5799 41.6772C35.0286 41.9714 35.3663 42.4053 35.54 42.9107C35.6456 43.5948 35.0021 43.8794 34.3838 43.9094C33.0434 43.9893 31.6928 44.0392 30.3322 44.0592C28.4723 44.0592 26.6074 44.0592 24.7474 44.0592L24.7525 44.0792Z" fill="#6DECB9"/>
                <path d="M108.102 1.00347C109.831 1.00347 111.56 1.00347 113.29 1.00347C113.796 0.996158 114.302 1.04641 114.798 1.15327C115.456 1.31807 116.135 1.73751 115.914 2.44162C115.8 2.71778 115.622 2.96345 115.395 3.15867C115.168 3.35389 114.898 3.49316 114.607 3.56519C112.505 3.72999 110.384 3.75997 108.273 3.74499C106.287 3.74499 104.302 3.60516 102.316 3.52027C102.06 3.51368 101.804 3.48695 101.552 3.44035C101.198 3.39694 100.87 3.23011 100.628 2.96951C100.386 2.70892 100.245 2.37145 100.23 2.01717C100.222 1.83934 100.252 1.66184 100.316 1.4958C100.381 1.32975 100.479 1.17874 100.605 1.05218C100.731 0.925615 100.882 0.826231 101.048 0.760279C101.215 0.694327 101.393 0.66321 101.572 0.668872C102.975 0.588974 104.387 0.668872 105.795 0.668872C106.559 0.668872 107.303 0.783719 108.087 0.848637L108.102 1.00347Z" fill="#6DECB9"/>
                <path d="M27.5271 16.1597C25.0992 16.1597 22.6712 16.1597 20.2433 16.1597C19.3535 16.1597 18.3482 16.1597 18.0415 15.0362C17.8505 14.3321 18.7202 13.6479 20.1679 13.608C22.5958 13.5481 25.0238 13.608 27.4517 13.6979C28.8592 13.7378 30.2667 13.8377 31.6742 13.9376C32.0598 13.9083 32.4452 13.9953 32.7801 14.1872C33.1961 14.5316 33.4802 15.0077 33.5844 15.5355C33.5844 15.8152 32.9209 16.3295 32.5087 16.3795C31.4274 16.4745 30.3409 16.4995 29.2563 16.4544C28.6783 16.4544 28.1002 16.3994 27.5271 16.3645V16.1597Z" fill="#6DECB9"/>
                <path d="M81.3795 44.3085C83.6416 43.6743 84.662 45.6718 86.5621 46.0513C86.7984 43.6144 86.5269 41.2324 86.5873 38.8554C85.5177 38.385 84.4724 37.8617 83.4556 37.2874C80.8014 35.6345 79.9368 32.4635 81.5655 30.1664C82.5281 28.719 83.8627 27.5536 85.4311 26.7907C85.8282 26.6059 86.2203 26.4012 86.6275 26.2014C86.5621 25.1178 86.4666 24.1091 86.4616 23.0954C86.4616 22.5361 86.4616 21.9119 87.2508 21.7421C88.04 21.5723 88.4874 22.1116 88.7186 22.6809C88.9923 23.5072 89.2073 24.3515 89.3621 25.2077C90.2267 25.3525 91.1667 25.5073 92.1017 25.6721C93.5789 25.9059 94.9375 26.6167 95.9673 27.6945C96.1454 27.8784 96.3132 28.0718 96.47 28.2738C97.1687 29.1927 97.234 30.0066 96.5504 30.481C95.7863 31.0103 95.0725 30.7656 94.5397 30.0665C93.6499 28.903 92.3078 28.6084 91.0209 28.2538C90.5034 28.1901 89.9801 28.1901 89.4626 28.2538C89.4626 30.5859 89.5682 32.6932 89.4274 34.7856C89.3319 36.1588 89.9753 36.783 91.1013 37.1925C92.7051 37.7185 94.0717 38.7879 94.9619 40.2137C96.8118 43.1799 96.1633 46.1661 93.1674 47.9339C92.0441 48.5286 90.8915 49.067 89.7139 49.5468C89.7168 50.1041 89.6865 50.661 89.6234 51.2147C89.6147 51.3939 89.5666 51.5689 89.4825 51.7276C89.3983 51.8862 89.2803 52.0247 89.1366 52.1332C88.9928 52.2417 88.8269 52.3176 88.6505 52.3556C88.4741 52.3937 88.2915 52.3929 88.1154 52.3533C87.4167 52.2684 86.909 51.9288 86.9341 51.1099C86.9341 50.5406 86.9341 49.9763 86.9341 49.3371C84.3956 48.3883 81.8822 47.4994 81.3795 44.3085ZM89.538 46.4708C92.2324 45.7966 93.5293 44.6181 93.4187 43.1949C93.2981 41.6369 91.4834 40.1088 89.538 39.924V46.4708ZM86.6828 35.4297C86.8362 33.3552 86.8362 31.2722 86.6828 29.1976C86.0042 29.6121 85.6171 29.8169 85.2652 30.0765C84.2599 30.8106 83.2545 31.6595 83.4656 33.0228C83.6767 34.3861 84.8932 34.8755 86.0243 35.3598C86.2417 35.3972 86.4622 35.4139 86.6828 35.4098V35.4297Z" fill="#6DECB9"/>
                <path d="M44.7791 20.3388C44.6479 20.8987 44.4363 21.4368 44.1508 21.9368C43.8793 22.2764 43.2258 22.6509 42.9091 22.5361C42.668 22.4255 42.4535 22.2648 42.2801 22.065C42.1067 21.8651 41.9784 21.6307 41.9038 21.3775C41.7967 20.6901 41.8052 19.9898 41.9289 19.3051C41.9408 18.8499 42.1315 18.4173 42.4603 18.1C42.7891 17.7827 43.2299 17.6059 43.6883 17.6073C45.6588 17.7172 47.6193 17.9968 49.5697 18.2764C50.1226 18.3563 50.8414 18.646 50.575 19.3701C50.3131 19.8453 49.8777 20.2028 49.3586 20.3688C48.9112 20.5286 48.3532 20.3338 47.8505 20.3288C46.7949 20.3388 45.7795 20.3388 44.7791 20.3388Z" fill="#6DECB9"/>
                <path d="M44.6332 57.3678C46.0306 57.5076 47.5035 57.188 48.6999 58.1118C48.5692 59.9045 48.4737 60.0743 46.9556 60.1442C45.8053 60.1925 44.653 60.1609 43.5072 60.0494C42.2605 59.9295 41.783 59.4301 41.7176 58.2317C41.6732 57.2128 41.6917 56.1922 41.7729 55.1755C41.7662 54.8832 41.8705 54.5991 42.065 54.3798C42.2595 54.1604 42.5301 54.0218 42.8228 53.9916C43.1156 53.9614 43.409 54.0417 43.6448 54.2167C43.8806 54.3917 44.0414 54.6484 44.0953 54.9359C44.3165 55.7099 44.4472 56.5138 44.6332 57.3678Z" fill="#6DECB9"/>
                <path d="M123.489 8.16505C123.444 8.75431 123.419 9.25867 123.353 9.76303C123.288 10.2674 123.097 10.8966 122.453 10.7618C121.951 10.6519 121.162 10.1725 121.172 9.88788C121.277 8.69628 121.465 7.5133 121.735 6.34735C121.735 6.29242 121.815 6.24748 121.855 6.19755C122.785 5.11891 123.806 5.93288 124.71 6.19755C125.932 6.53212 126.535 7.40601 126.445 8.19501C126.448 8.35658 126.406 8.51592 126.326 8.65625C126.245 8.79659 126.128 8.91273 125.987 8.99247C125.845 9.0722 125.684 9.11257 125.522 9.10932C125.359 9.10608 125.2 9.05933 125.062 8.97403C124.776 8.84918 124.56 8.57454 124.278 8.42473C124.025 8.31132 123.76 8.22429 123.489 8.16505Z" fill="#6DECB9"/>
                <path d="M125.092 43.1804C124.04 43.2849 122.982 43.3199 121.925 43.2853C121.661 43.2403 121.41 43.14 121.188 42.9911C120.966 42.8421 120.779 42.6479 120.639 42.4213C120.04 41.3477 120.639 40.329 121.141 39.3852C121.205 39.2542 121.308 39.1455 121.435 39.0736C121.562 39.0016 121.709 38.9697 121.855 38.9822C122.001 38.9946 122.139 39.0508 122.253 39.1433C122.366 39.2357 122.448 39.3602 122.488 39.5001C122.815 40.8084 123.74 40.9083 124.796 40.9982C125.302 41.046 125.786 41.227 126.198 41.5225C126.357 41.6557 126.481 41.8242 126.561 42.0142C126.642 42.2043 126.676 42.4105 126.661 42.6161C126.575 42.9157 126.047 43.1155 125.655 43.3052C125.51 43.3851 125.278 43.3052 125.087 43.3052L125.092 43.1804Z" fill="#6DECB9"/>
                </g>
                <path d="M53.3555 113.416H51.8255L51.9155 107.494L51.8615 100.906C53.0255 100.75 54.3515 100.672 55.8395 100.672C58.5035 100.672 59.8355 101.968 59.8355 104.56C59.8355 106.612 58.9475 107.848 57.1715 108.268V108.34L59.9975 113.416H58.1975L55.6235 108.448L53.3555 108.358V113.416ZM53.3375 107.008C54.4655 107.128 55.4075 107.188 56.1635 107.188C56.9195 107.188 57.4535 106.99 57.7655 106.594C58.0775 106.186 58.2335 105.502 58.2335 104.542C58.2335 103.174 57.9995 102.352 57.5315 102.076C57.2555 101.908 56.7395 101.824 55.9835 101.824C55.2395 101.824 54.3695 101.89 53.3735 102.022L53.3375 107.008ZM66.7973 113.65C64.0133 113.65 62.6213 111.826 62.6213 108.178C62.6213 104.53 64.0013 102.706 66.7613 102.706C67.9853 102.706 68.9033 103.09 69.5153 103.858C70.1273 104.614 70.4333 105.874 70.4333 107.638V108.754H64.2053C64.2053 110.374 64.4633 111.424 64.9793 111.904C65.3033 112.192 65.7473 112.336 66.3113 112.336C67.3193 112.336 68.3093 112.168 69.2813 111.832L69.7673 111.652L70.1453 112.876C69.1373 113.392 68.0213 113.65 66.7973 113.65ZM68.4893 104.542C68.2493 104.182 67.6613 104.002 66.7253 104.002C65.7893 104.002 65.1353 104.248 64.7633 104.74C64.3913 105.232 64.2053 106.174 64.2053 107.566L68.9033 107.476C68.9033 105.976 68.7653 104.998 68.4893 104.542ZM75.1013 103.552H77.1893V104.758H75.1013V110.194C75.1013 111.202 75.1493 111.808 75.2453 112.012C75.3533 112.216 75.6713 112.318 76.1993 112.318L77.1713 112.282V113.488C76.9193 113.548 76.5833 113.578 76.1633 113.578C75.2993 113.578 74.6573 113.344 74.2373 112.876C73.8173 112.396 73.6073 111.466 73.6073 110.086V104.722H72.4193V103.786L73.6613 103.534L74.0573 101.086H75.1013V103.552ZM79.4259 108.196C79.4259 106.396 79.7199 105.034 80.3079 104.11C80.9079 103.174 81.9159 102.706 83.3319 102.706C84.7599 102.706 85.7739 103.174 86.3739 104.11C86.9739 105.034 87.2739 106.39 87.2739 108.178C87.2739 109.966 86.9739 111.328 86.3739 112.264C85.7739 113.188 84.7599 113.65 83.3319 113.65C81.9159 113.65 80.9079 113.188 80.3079 112.264C79.7199 111.34 79.4259 109.984 79.4259 108.196ZM84.7899 104.308C84.4779 104.104 83.9979 104.002 83.3499 104.002C82.7019 104.002 82.2159 104.104 81.8919 104.308C81.5799 104.512 81.3399 104.914 81.1719 105.514C81.0159 106.102 80.9379 106.99 80.9379 108.178C80.9379 109.366 81.0159 110.26 81.1719 110.86C81.3279 111.46 81.5679 111.862 81.8919 112.066C82.2159 112.27 82.7019 112.372 83.3499 112.372C83.9979 112.372 84.4779 112.27 84.7899 112.066C85.1139 111.862 85.3539 111.46 85.5099 110.86C85.6659 110.26 85.7439 109.366 85.7439 108.178C85.7439 106.99 85.6659 106.102 85.5099 105.514C85.3539 104.914 85.1139 104.512 84.7899 104.308ZM95.161 104.236C94.885 104.212 94.585 104.2 94.261 104.2C93.949 104.2 93.541 104.296 93.037 104.488C92.533 104.68 92.137 104.89 91.849 105.118V113.416H90.355V102.94H91.309L91.507 104.002H91.615C92.107 103.642 92.629 103.336 93.181 103.084C93.733 102.832 94.189 102.706 94.549 102.706L95.287 102.796L95.161 104.236ZM98.9506 113.416H97.4566V102.94H98.4646L98.6266 103.966H98.7166C100.157 103.126 101.405 102.706 102.461 102.706C103.409 102.706 104.063 103.072 104.423 103.804C104.723 104.416 104.873 105.298 104.873 106.45V113.416H103.361V106.972C103.361 105.604 103.271 104.788 103.091 104.524C102.923 104.26 102.599 104.128 102.119 104.128C101.207 104.128 100.151 104.446 98.9506 105.082V113.416ZM107.709 108.196C107.709 106.396 108.003 105.034 108.591 104.11C109.191 103.174 110.199 102.706 111.615 102.706C113.043 102.706 114.057 103.174 114.657 104.11C115.257 105.034 115.557 106.39 115.557 108.178C115.557 109.966 115.257 111.328 114.657 112.264C114.057 113.188 113.043 113.65 111.615 113.65C110.199 113.65 109.191 113.188 108.591 112.264C108.003 111.34 107.709 109.984 107.709 108.196ZM113.073 104.308C112.761 104.104 112.281 104.002 111.633 104.002C110.985 104.002 110.499 104.104 110.175 104.308C109.863 104.512 109.623 104.914 109.455 105.514C109.299 106.102 109.221 106.99 109.221 108.178C109.221 109.366 109.299 110.26 109.455 110.86C109.611 111.46 109.851 111.862 110.175 112.066C110.499 112.27 110.985 112.372 111.633 112.372C112.281 112.372 112.761 112.27 113.073 112.066C113.397 111.862 113.637 111.46 113.793 110.86C113.949 110.26 114.027 109.366 114.027 108.178C114.027 106.99 113.949 106.102 113.793 105.514C113.637 104.914 113.397 104.512 113.073 104.308ZM34.7907 135.416L38.3727 122.834H40.9287L44.4927 135.416H42.3147L41.5227 132.32H37.7787L36.9687 135.416H34.7907ZM38.1747 130.556H41.1267L39.7047 124.688H39.5967L38.1747 130.556ZM46.2745 135.416V124.886H47.6425L47.8765 125.93H47.9665C49.4425 125.078 50.6845 124.652 51.6925 124.652C52.7125 124.652 53.4025 124.982 53.7625 125.642C54.1345 126.302 54.3205 127.244 54.3205 128.468V135.416H52.2325V128.99C52.2325 127.922 52.1605 127.25 52.0165 126.974C51.8845 126.686 51.5845 126.542 51.1165 126.542C50.6485 126.542 50.1445 126.638 49.6045 126.83C49.0765 127.022 48.6625 127.214 48.3625 127.406V135.416H46.2745ZM57.2026 131.834V124.886H59.2906V131.42C59.2906 132.572 59.3686 133.262 59.5246 133.49C59.6926 133.694 59.9986 133.796 60.4426 133.796C61.1626 133.796 62.0626 133.508 63.1426 132.932V124.886H65.2306V135.416H63.8626L63.6106 134.372H63.5206C63.5086 134.384 63.3706 134.462 63.1066 134.606C62.8546 134.75 62.6746 134.846 62.5666 134.894C62.4706 134.942 62.2906 135.032 62.0266 135.164C61.7626 135.284 61.5406 135.368 61.3606 135.416C60.8566 135.572 60.4006 135.65 59.9926 135.65C58.1326 135.65 57.2026 134.378 57.2026 131.834ZM70.7952 135.65C69.8712 135.65 69.1272 135.362 68.5632 134.786C68.0112 134.198 67.7352 133.328 67.7352 132.176C67.7352 131.012 68.1072 130.166 68.8512 129.638C69.6072 129.11 70.6932 128.846 72.1092 128.846L73.8372 128.864C73.8372 127.7 73.7412 126.998 73.5492 126.758C73.3692 126.506 73.0092 126.38 72.4692 126.38C71.9292 126.38 71.3232 126.446 70.6512 126.578C69.9912 126.71 69.2892 126.914 68.5452 127.19L67.9872 125.66C68.1552 125.588 68.3772 125.498 68.6532 125.39C68.9412 125.27 69.4692 125.12 70.2372 124.94C71.0052 124.748 71.7072 124.652 72.3432 124.652C74.7312 124.652 75.9252 125.948 75.9252 128.54V135.416H74.5932L74.3052 134.282H74.2152C74.0832 134.39 73.9032 134.522 73.6752 134.678C73.4592 134.822 73.0452 135.02 72.4332 135.272C71.8332 135.524 71.2872 135.65 70.7952 135.65ZM73.8372 130.556C73.3452 130.484 72.6792 130.448 71.8392 130.448C70.9992 130.448 70.4772 130.55 70.2732 130.754C70.0092 130.994 69.8772 131.456 69.8772 132.14C69.8772 132.812 69.9612 133.274 70.1292 133.526C70.3092 133.766 70.5912 133.886 70.9752 133.886C71.3712 133.886 71.8032 133.82 72.2712 133.688C72.7512 133.544 73.2732 133.34 73.8372 133.076V130.556ZM78.9652 135.416V121.79H81.0532V135.416H78.9652ZM91.5224 135.074V131.042H87.5624V129.26H91.5224V125.264H93.3404V129.26H97.3004V131.042H93.3404V135.074H91.5224ZM99.4223 135.416V133.616L102.482 133.652L102.59 124.958H102.5L100.106 127.442L98.7383 126.074L102.5 122.708L104.588 122.852V133.652L107.27 133.616V135.416H99.4223ZM112.548 133.814C113.184 133.814 113.622 133.652 113.862 133.328C114.114 133.004 114.24 132.44 114.24 131.636C114.24 130.832 114.072 130.28 113.736 129.98C113.4 129.668 112.38 129.512 110.676 129.512L108.948 129.548L109.938 122.834H115.86V124.616L111.684 124.544L111.234 127.73C112.05 127.778 112.74 127.862 113.304 127.982C113.88 128.102 114.414 128.3 114.906 128.576C115.914 129.116 116.418 130.124 116.418 131.6C116.418 132.872 116.052 133.868 115.32 134.588C114.588 135.296 113.586 135.65 112.314 135.65C111.606 135.65 110.898 135.536 110.19 135.308C109.482 135.08 108.954 134.852 108.606 134.624L108.066 134.282L108.75 132.734C110.214 133.454 111.48 133.814 112.548 133.814ZM120.364 135.578L124.036 128.342L126.862 122.222H128.698L125.278 129.17L122.218 135.578H120.364ZM122.992 127.532C122.44 128 121.768 128.234 120.976 128.234C120.184 128.234 119.506 128 118.942 127.532C118.39 127.052 118.114 126.326 118.114 125.354C118.114 124.382 118.39 123.668 118.942 123.212C119.494 122.744 120.172 122.51 120.976 122.51C121.78 122.51 122.458 122.744 123.01 123.212C123.562 123.668 123.838 124.382 123.838 125.354C123.838 126.326 123.556 127.052 122.992 127.532ZM130.282 134.948C129.73 135.416 129.052 135.65 128.248 135.65C127.444 135.65 126.766 135.416 126.214 134.948C125.662 134.48 125.386 133.76 125.386 132.788C125.386 131.804 125.662 131.084 126.214 130.628C126.766 130.16 127.444 129.926 128.248 129.926C129.052 129.926 129.73 130.16 130.282 130.628C130.834 131.084 131.11 131.804 131.11 132.788C131.11 133.76 130.834 134.48 130.282 134.948ZM119.77 125.372C119.77 126.212 120.172 126.632 120.976 126.632C121.792 126.632 122.2 126.212 122.2 125.372C122.2 124.532 121.792 124.112 120.976 124.112C120.172 124.112 119.77 124.532 119.77 125.372ZM127.042 132.788C127.042 133.628 127.444 134.048 128.248 134.048C129.052 134.048 129.454 133.628 129.454 132.788C129.454 131.948 129.052 131.528 128.248 131.528C127.444 131.528 127.042 131.948 127.042 132.788Z" fill="black"/>
                <defs>
                <clipPath id="clip0_107_34">
                <rect width="120" height="71" fill="white" transform="translate(14)"/>
                </clipPath>
                </defs>
                </svg>
